<?xml version="1.0" standalone="no"?>
<!DOCTYPE svg PUBLIC "-//W3C//DTD SVG 1.1//EN" "http://www.w3.org/Graphics/SVG/1.1/DTD/svg11.dtd">
<svg xmlns="http://www.w3.org/2000/svg">
<metadata>Generated by Fontastic.me</metadata>
<defs>
<font id="rio-gig" horiz-adv-x="512">
<font-face font-family="rio-gig" units-per-em="512" ascent="480" descent="-32"/>
<missing-glyph horiz-adv-x="512" />

<glyph unicode="&#97;" d="M284 255l223 224c8 8 8 20 0 27-7 8-19 8-27 0l-223-223-224 223c-8 8-20 8-27 0-8-7-8-19 0-27l223-224-223-223c-8-8-8-20 0-27 3-4 8-6 13-6 5 0 10 2 14 6l224 223 223-223c4-4 9-6 14-6 5 0 10 2 13 6 8 7 8 19 0 27z"/>
<glyph unicode="&#98;" d="M417 348c-15 78-85 136-166 136-69 0-131-43-157-107-54-10-94-59-94-114 0-65 53-117 117-117 7 0 12 5 12 12 0 6-5 12-12 12-51 0-93 41-93 93 0 46 35 86 81 92 4 0 8 3 9 8 21 58 76 97 137 97 73 0 135-54 144-126 1-6 6-10 12-10l2 0c1 0 1 0 2 0 42 0 77-35 77-77 0-43-35-77-77-77-7 0-12-6-12-12 0-7 5-12 12-12 56 0 101 45 101 101 0 53-42 97-95 101z m-241-154c-7 0-12-5-12-12l0-60c0-7 5-12 12-12 7 0 12 5 12 12l0 60c0 7-5 12-12 12z m80-80c-7 0-12-5-12-12l0-60c0-7 5-12 12-12 7 0 12 5 12 12l0 60c0 7-5 12-12 12z m80 80c-7 0-12-5-12-12l0-60c0-7 5-12 12-12 7 0 12 5 12 12l0 60c0 7-5 12-12 12z"/>
<glyph unicode="&#99;" d="M257 389c-74 0-134-60-134-134 0-74 60-134 134-134 74 0 134 60 134 134 0 74-60 134-134 134z m0-243c-60 0-109 49-109 109 0 60 49 109 109 109 60 0 109-49 109-109 0-60-49-109-109-109z m0 276c7 0 12 6 12 13l0 65c0 6-5 12-12 12-7 0-13-6-13-12l0-65c0-7 6-13 13-13z m0-334c-7 0-13-5-13-12l0-65c0-7 6-13 13-13 7 0 12 6 12 13l0 65c0 7-5 12-12 12z m-167 167c0 7-6 13-13 13l-65 0c-6 0-12-6-12-13 0-7 6-12 12-12l65 0c7 0 13 5 13 12z m411 13l-65 0c-7 0-12-6-12-13 0-7 5-12 12-12l65 0c7 0 13 5 13 12 0 7-6 13-13 13z m-380 105c3-2 6-3 9-3 3 0 6 1 9 3 5 5 5 13 0 18l-46 46c-5 5-13 5-18 0-5-5-5-13 0-18z m271-236c-4 5-12 5-17 0-5-5-5-13 0-17l46-46c2-3 6-4 9-4 3 0 6 1 8 4 5 4 5 12 0 17z m-271 0l-46-46c-5-5-5-13 0-18 3-2 6-3 9-3 3 0 6 1 9 3l46 47c5 4 5 12 0 17-5 5-13 5-18 0z m263 233c3 0 6 1 8 3l46 46c5 5 5 13 0 18-4 5-12 5-17 0l-46-46c-5-5-5-13 0-18 2-2 6-3 9-3z"/>
<glyph unicode="&#100;" d="M417 368c-15 78-85 136-166 136-69 0-131-43-157-107-54-10-94-59-94-114 0-65 53-117 117-117 7 0 12 5 12 12 0 6-5 12-12 12-51 0-93 41-93 93 0 46 35 86 81 92 4 0 8 3 9 8 21 58 76 97 137 97 73 0 135-54 144-126 1-6 6-11 12-10l2 0c1 0 1 0 2 0 42 0 77-35 77-77 0-43-35-77-77-77-7 0-12-6-12-12 0-7 5-12 12-12 56 0 101 45 101 101 0 53-42 97-95 101z m-255-172c-4-4-6-9-6-14 0-5 2-10 6-14 4-4 9-6 14-6 5 0 10 2 14 6 4 4 6 9 6 14 0 5-2 10-6 14-7 8-21 8-28 0z m0-64c-4-4-6-9-6-14 0-5 2-10 6-14 4-4 9-6 14-6 5 0 10 2 14 6 4 4 6 9 6 14 0 5-2 10-6 14-7 8-21 8-28 0z m0-64c-4-4-6-9-6-14 0-5 2-10 6-14 4-4 9-6 14-6 5 0 10 2 14 6 4 4 6 9 6 14 0 5-2 10-6 14-7 8-21 8-28 0z m212 86l-17 0 50 57c3 3 3 8 1 13-1 4-6 7-10 7l-124 0c-5 0-9-3-11-7l-52-115c-2-4-2-8 0-12 3-3 6-5 11-5l26 0-21-72c-1-5 1-10 5-13 2-1 5-2 7-2 3 0 6 1 8 3l135 125c4 3 5 9 3 13-1 5-6 8-11 8z m-112-99l13 45c1 4 1 8-2 11-2 3-5 5-9 5l-24 0 41 91 90 0-49-57c-3-4-4-9-2-13 2-4 6-7 11-7l12 0z"/>
<glyph unicode="&#101;" d="M417 340c-15 78-85 136-166 136-69 0-131-43-157-107-54-10-94-59-94-114 0-65 53-117 117-117 7 0 12 5 12 12 0 6-5 12-12 12-51 0-93 41-93 93 0 46 35 86 81 92 4 0 8 3 9 8 21 58 76 97 137 97 73 0 135-54 144-126 1-6 6-11 12-10l2 0c1 0 1 0 2 0 42 0 77-35 77-77 0-43-35-77-77-77-7 0-12-6-12-12 0-7 5-12 12-12 56 0 101 45 101 101 0 53-42 97-95 101z m-80-241c2 3 3 7 2 10-1 7-8 11-14 9l-14-4-23 14 23 13 14-3c1 0 2 0 3 0 5 0 10 3 11 8 1 4 0 8-2 11 6 3 8 10 4 16-3 5-10 7-16 4-1 3-4 6-7 7-7 2-13-2-15-9l-4-13-23-13 0 27 10 9c4 5 4 13 0 17-3 3-7 4-10 4 0 6-5 11-12 11-6 0-12-5-12-11-3 0-7-1-10-4-4-4-4-12 0-17l10-9 0-27-23 13-4 13c-2 7-8 11-15 9-3-1-6-4-7-7-6 3-13 1-16-4-4-6-2-13 4-16-2-3-3-7-2-11 1-5 6-8 11-8 1 0 2 0 4 0l13 3 23-13-23-14-13 4c-7 2-13-2-15-8-1-4 0-8 2-11-6-3-8-10-4-16 2-4 6-6 10-6 2 0 4 1 6 2 1-3 4-6 7-7 1 0 3 0 4 0 5 0 10 3 11 9l4 13 23 13 0-27-10-9c-4-5-4-13 0-17 3-3 7-4 10-4 0-6 6-11 12-11 7 0 12 5 12 11 0 0 1 0 1 0 3 0 6 1 9 4 4 4 4 12 0 17l-10 9 0 27 23-13 4-13c1-6 6-9 12-9 1 0 2 0 3 0 3 1 6 4 7 7 2-1 4-2 6-2 4 0 8 2 10 6 4 6 2 13-4 16z"/>
<glyph unicode="&#102;" d="M417 356c-15 78-85 136-166 136-69 0-131-43-157-107-54-10-94-59-94-114 0-65 53-117 117-117 7 0 12 5 12 12 0 6-5 12-12 12-51 0-93 41-93 93 0 46 35 86 81 92 4 0 8 3 9 8 21 58 76 97 137 97 73 0 135-54 144-126 1-6 6-10 12-10l2 0c1 0 1 0 2 0 42 0 77-35 77-77 0-43-35-77-77-77-7 0-12-6-12-12 0-7 5-12 12-12 56 0 101 45 101 101 0 53-42 97-95 101z m-241-114c-7 0-12-5-12-12l0-52c0-7 5-12 12-12 7 0 12 5 12 12l0 52c0 7-5 12-12 12z m80-144c-7 0-12-5-12-12l0-52c0-7 5-12 12-12 7 0 12 5 12 12l0 52c0 7-5 12-12 12z m80 144c-7 0-12-5-12-12l0-52c0-7 5-12 12-12 7 0 12 5 12 12l0 52c0 7-5 12-12 12z m0-104c-7 0-12-5-12-12l0-52c0-7 5-12 12-12 7 0 12 5 12 12l0 52c0 7-5 12-12 12z m-80 64c-7 0-12-5-12-12l0-52c0-7 5-12 12-12 7 0 12 5 12 12l0 52c0 7-5 12-12 12z m-80-64c-7 0-12-5-12-12l0-52c0-7 5-12 12-12 7 0 12 5 12 12l0 52c0 7-5 12-12 12z"/>
<glyph unicode="&#103;" d="M507 331c-2 3-6 4-9 4-48 0-87 39-87 86 0 12 3 23 8 34 1 3 1 7-1 10-2 3-6 5-9 5 0 0 0 0 0 0-42 0-79-25-97-62-25 20-57 32-92 32-60 0-115-37-137-93-48-10-83-52-83-101 0-56 46-102 103-102 5 0 10 4 10 10 0 6-5 11-10 11-45 0-82 36-82 81 0 41 30 76 71 81 4 1 7 3 8 7 18 51 66 85 120 85 35 0 67-14 90-37 2-2 4-4 5-5 1-1 2-2 2-3 2-2 4-4 5-6 1-1 1-2 2-2 1-3 3-5 4-7 1-1 1-1 2-2 1-3 2-5 4-7 0-1 0-2 1-3 1-2 2-5 3-7 0-1 1-2 1-3 1-2 2-5 3-7 0-1 0-3 1-4 0-2 1-4 1-6 1-3 2-6 2-9 0-1 0-2 0-2 1-3 2-5 4-7 2-1 5-2 7-2l2 0c0 0 1 0 1 0 3 0 6 0 9-1 0 0 1 0 2 0 2 0 4-1 6-1 1 0 2-1 2-1 3-1 5-1 8-2 0-1 1-1 2-1 1-1 3-2 5-3 1-1 2-1 2-2 2-1 4-2 5-3 1-1 2-1 2-1 2-2 4-4 6-6 0 0 1-1 1-1 2-2 3-4 5-6 0 0 0 0 1-1 1-2 3-5 4-7 5-10 8-20 8-32 0-37-30-67-68-67-6 0-10-5-10-11 0-6 4-10 10-10 49 0 89 39 89 88 0 11-2 20-5 29 28 10 52 31 64 59 1 4 1 8-1 11z m-72-50c-2 2-4 5-6 7-1 1-1 2-2 3-1 1-3 3-4 4-1 1-2 2-3 3-1 1-3 2-4 3-1 1-2 2-3 3-3 1-5 3-7 5-2 0-3 1-4 1-1 1-3 2-5 3-1 0-2 1-4 1-1 1-3 2-5 2-1 1-2 1-3 2-2 0-4 1-7 1-1 0-2 1-3 1-3 0-6 1-9 1 0 0 0 0 0 1-1 3-2 7-3 10 0 2-1 3-2 5 0 2-1 4-1 6-1 2-2 4-3 6 0 1-1 2-1 4-1 2-3 4-4 6 0 1 0 1 0 1-3 5-6 10-9 14 0 1-1 2-2 3-1 2-2 4-3 5-2 2-3 3-4 5-1 1-2 3-3 4-1 1-2 1-2 2 10 28 35 49 65 54-2-8-4-17-4-26 0-53 40-98 91-106-11-16-27-29-46-34z m-281-95c-5 0-10-5-10-10l0-53c0-6 5-11 10-11 6 0 11 5 11 11l0 53c0 5-5 10-11 10z m70-70c-5 0-10-5-10-11l0-52c0-6 5-11 10-11 6 0 11 5 11 11l0 52c0 6-5 11-11 11z m71 70c-6 0-11-5-11-10l0-53c0-6 5-11 11-11 5 0 10 5 10 11l0 53c0 5-5 10-10 10z"/>
<glyph unicode="&#104;" d="M514 324c-2 3-6 5-10 5-48 0-87 39-87 87 0 12 3 24 7 35 2 3 1 7-1 10-2 3-5 5-8 5 0 0 0 0 0 0-43 0-81-26-98-63-26 21-59 33-94 33-61 0-117-38-139-95-48-10-84-52-84-102 0-57 47-104 104-104 6 0 11 5 11 11 0 5-5 10-11 10-46 0-83 37-83 83 0 41 31 76 72 82 4 0 7 3 9 7 18 52 67 86 121 86 36 0 68-14 92-38 1-1 3-3 4-5 1-1 2-2 3-3 2-2 3-4 5-6 0 0 1-1 1-2 2-2 3-4 5-7 0 0 1-1 1-2 2-2 3-5 4-7 1-1 1-2 1-2 2-3 3-5 4-8 0-1 0-2 1-3 1-2 2-5 2-7 1-2 1-3 2-5 0-2 1-4 1-5 1-4 2-8 2-11 1-6 6-10 11-10l2 0c0 0 1 0 1 0 3 0 6 0 9 0 1 0 1 0 2 0 2-1 4-1 6-2 1 0 2 0 3 0 2-1 5-2 7-3 1 0 1-1 2-1 2-1 4-2 5-3 1 0 2-1 3-1 2-1 3-3 5-4 0 0 1-1 2-1 2-2 4-4 5-5 1-1 2-2 2-2 2-2 3-4 4-5 1-1 1-1 1-2 2-2 4-5 5-7 5-10 8-21 8-32 0-38-31-69-69-69-6 0-10-5-10-10 0-6 4-11 10-11 50 0 90 40 90 90 0 10-2 20-5 29 29 10 52 32 65 60 1 3 1 7-1 10z m-73-50c0 0-1 0-1 0-1 3-3 5-5 7-1 1-2 2-2 3-2 2-3 3-4 4-1 1-2 2-3 3-2 1-3 2-4 3-1 1-2 2-4 3-2 2-3 3-5 4-2 1-4 2-6 3-1 1-3 2-4 3-2 0-3 1-4 1-2 1-4 2-5 2-2 1-3 1-4 1-2 1-4 1-6 2-1 0-2 0-3 0-4 1-7 1-10 2 0 0 0 0 0 1-1 3-2 6-3 10 0 2-1 4-2 5 0 2-1 4-1 6-1 2-2 4-3 6 0 1-1 2-1 4-2 2-3 4-4 7 0 0 0 0 0 0-3 5-6 10-9 15-1 1-1 2-2 3-1 2-2 3-4 5-1 2-2 3-3 4-1 2-3 3-4 5 0 0-1 1-2 2 11 28 36 49 66 55-2-9-3-18-3-27 0-54 40-99 92-107-11-17-28-29-47-35z m-141-173c2 3 2 6 2 9-2 6-8 9-14 8l-11-4-21 12 21 12 11-3c1 0 2 0 3 0 5 0 9 3 11 8 0 3 0 6-2 9 5 3 6 9 3 14-2 5-9 7-14 4-1 3-3 5-7 6-5 2-11-2-13-7l-3-12-21-12 0 24 9 8c4 5 4 11 0 16-2 2-6 3-9 2 0 6-5 11-10 11-6 0-11-5-11-11-3 1-6 0-8-2-5-5-5-11-1-16l9-8 0-24-21 12-3 12c-1 5-7 9-13 7-3-1-6-3-7-6-5 3-11 1-14-4-3-5-1-11 4-14-2-3-3-6-2-9 1-5 5-8 10-8 1 0 2 0 3 0l12 3 20-12-20-12-12 4c-6 1-12-2-13-8-1-3 0-6 2-9-5-3-7-9-4-14 2-4 5-6 9-6 2 0 4 1 5 2 1-3 4-5 7-6 1 0 2-1 3-1 5 0 9 4 10 8l3 12 21 12 0-24-9-9c-4-4-4-11 1-15 2-2 5-3 8-3 0-5 5-10 11-10 5 0 10 5 10 10 1 0 1 0 1 0 3 0 6 1 8 3 4 4 4 11 0 15l-9 9 0 24 21-12 3-12c2-4 6-8 11-8 0 0 1 1 2 1 4 1 6 3 7 6 2-1 4-2 5-2 4 0 8 2 9 6 3 5 2 11-3 14z"/>
<glyph unicode="&#105;" d="M507 338c-2 3-6 4-9 4-48 0-87 39-87 86 0 12 3 23 8 34 1 3 1 7-1 10-2 3-6 5-9 5l0 0c-42 0-79-25-97-62-25 20-57 32-92 32-60 0-115-37-137-93-48-10-83-52-83-101 0-56 46-102 103-102 5 0 10 4 10 10 0 6-5 11-10 11-45 0-82 36-82 81 0 41 30 76 71 81 4 1 7 3 8 7 18 51 66 85 120 85 35 0 67-14 90-37 2-2 4-4 5-5 1-1 2-2 3-3 1-2 3-4 4-6 1-1 1-2 2-2 1-3 3-5 4-7 1-1 1-1 2-2 1-3 2-5 4-7 0-1 0-2 1-3 1-2 2-4 3-7 0-1 1-2 1-3 1-2 2-5 3-7 0-1 1-3 1-5 0-1 1-3 1-5 1-4 2-7 2-11 1-3 2-5 4-7 2-1 5-2 7-2l2 0c0 0 1 0 1 0 3 0 6 0 9-1 0 0 1 0 2 0 2 0 4-1 6-1 1 0 2-1 2-1 3-1 5-1 8-2 0-1 1-1 2-1 1-1 3-2 5-3 1-1 2-1 2-2 2-1 4-2 5-3 1-1 2-1 2-1 2-2 4-4 6-6 0 0 1-1 1-1 2-2 3-4 5-6 0 0 0 0 1-1 1-2 3-5 4-7 5-10 8-20 8-32 0-37-30-67-68-67-6 0-10-5-10-11 0-6 4-10 10-10 49 0 89 39 89 88 0 11-2 20-5 29 28 10 51 31 64 59 1 4 1 8-1 11z m-72-50c-2 2-4 5-6 7-1 1-1 2-2 3-1 1-3 3-4 4-1 1-2 2-3 3-1 1-3 2-4 3-1 1-2 2-3 3-3 1-5 3-7 5-2 0-3 1-4 1-1 1-3 2-5 3-1 0-2 1-3 1-2 1-4 2-6 2-1 1-2 1-3 2-2 0-5 1-7 1-1 0-2 1-3 1-3 0-6 1-9 1 0 0 0 0 0 1-1 3-2 7-3 10 0 2-1 4-2 5 0 2-1 4-1 6-1 2-2 4-3 6 0 1-1 2-1 3-1 3-3 5-4 7 0 1 0 1 0 1-3 5-6 10-9 15 0 0-1 1-2 2-1 2-2 4-3 5-2 2-3 3-4 5-1 1-2 3-3 4-1 1-2 1-2 2 10 28 35 49 65 54-3-8-4-17-4-26 0-53 40-98 91-106-11-16-27-29-46-34z m-281-60c-5 0-10-5-10-10l0-46c0-6 5-11 10-11 6 0 11 5 11 11l0 46c0 5-5 10-11 10z m70-126c-5 0-10-5-10-11l0-45c0-6 5-11 10-11 6 0 11 5 11 11l0 45c0 6-5 11-11 11z m71 126c-6 0-11-5-11-10l0-46c0-6 5-11 11-11 5 0 10 5 10 11l0 46c0 5-5 10-10 10z m0-91c-6 0-11-5-11-11l0-45c0-6 5-11 11-11 5 0 10 5 10 11l0 45c0 6-5 11-10 11z m-71 56c-5 0-10-5-10-10l0-46c0-6 5-11 10-11 6 0 11 5 11 11l0 46c0 5-5 10-11 10z m-70-56c-5 0-10-5-10-11l0-45c0-6 5-11 10-11 6 0 11 5 11 11l0 45c0 6-5 11-11 11z"/>
<glyph unicode="&#106;" d="M507 338c-2 3-6 4-9 4-48 0-87 39-87 86 0 12 3 23 8 34 1 3 1 7-1 10-2 3-6 5-9 5 0 0 0 0 0 0-42 0-79-25-97-62-25 20-57 32-92 32-60 0-115-37-137-93-48-10-83-52-83-101 0-56 46-102 103-102 5 0 10 4 10 10 0 6-5 11-10 11-45 0-82 36-82 81 0 41 30 76 71 81 4 1 7 3 8 7 18 51 66 85 120 85 35 0 67-14 90-37 2-2 4-4 5-5 1-1 2-2 2-3 2-2 4-4 5-6 1-1 1-2 2-2 1-3 3-5 4-7 1-1 1-1 2-2 1-3 2-5 4-7 0-1 0-2 1-3 1-2 2-5 3-7 0-1 1-2 1-3 1-2 2-5 3-7 0-1 0-3 1-4 0-2 1-4 1-6 1-3 2-6 2-9 0-1 0-2 0-2 1-3 2-5 4-7 2-1 5-2 7-2l2 0c0 0 1 0 1 0 3 0 6 0 9-1 0 0 1 0 2 0 2 0 4-1 6-1 1 0 2-1 2-1 3-1 5-1 8-2 0-1 1-1 2-1 1-1 3-2 5-3 1-1 2-1 2-2 2-1 4-2 5-3 1-1 2-1 2-1 2-2 4-4 6-6 0 0 1-1 1-1 2-2 3-4 5-6 0 0 0 0 1-1 1-2 3-5 4-7 5-10 8-20 8-32 0-37-30-67-68-67-6 0-10-5-10-11 0-6 4-10 10-10 49 0 89 39 89 88 0 11-2 20-5 29 28 10 52 31 64 59 1 4 1 8-1 11z m-72-50c-2 2-4 5-6 7-1 1-1 2-2 3-1 1-3 3-4 4-1 1-2 2-3 3-1 1-3 2-4 3-1 1-2 2-3 3-3 1-5 3-7 5-2 0-3 1-4 1-1 1-3 2-5 3-1 0-2 1-3 1-2 1-4 2-6 2-1 1-2 1-3 2-2 0-4 1-7 1-1 0-2 1-3 1-3 0-6 1-9 1 0 0 0 0 0 1-1 3-2 7-3 10 0 2-1 4-2 5 0 2-1 4-1 6-1 2-2 4-3 6 0 1-1 2-1 4-1 2-3 4-4 6 0 1 0 1 0 1-3 5-6 10-9 14 0 1-1 2-2 3-1 2-2 4-3 5-2 2-3 3-4 5-1 1-2 3-3 4-1 1-2 1-2 2 10 28 35 49 65 54-2-8-4-17-4-26 0-53 40-98 91-106-11-16-27-29-46-34z m-140-60c-6 0-11-5-11-10l0-137c0-6 5-11 11-11 5 0 10 5 10 11l0 137c0 5-5 10-10 10z m-71-35c-5 0-10-5-10-10l0-137c0-6 5-11 10-11 6 0 11 5 11 11l0 137c0 5-5 10-11 10z m-70 35c-5 0-10-5-10-10l0-137c0-6 5-11 10-11 6 0 11 5 11 11l0 137c0 5-5 10-11 10z"/>
<glyph unicode="&#107;" d="M507 317c-2 3-6 4-9 4-48 0-87 39-87 86 0 12 3 23 8 34 1 3 1 7-1 10-2 3-6 5-9 5l0 0c-42 0-79-25-97-62-25 20-57 32-92 32-60 0-115-37-137-93-48-10-83-52-83-101 0-56 46-102 103-102 5 0 10 4 10 10 0 6-5 11-10 11-45 0-82 36-82 81 0 41 30 76 71 81 4 0 7 3 8 7 18 51 66 85 120 85 35 0 67-14 91-38 1-1 2-3 4-4 1-1 2-2 3-3 1-2 3-4 4-6 1-1 1-2 2-3 1-2 3-4 4-6 1-1 1-2 2-2 1-3 2-5 4-7 0-1 0-2 1-3 1-2 2-5 3-7 0-1 1-2 1-3 1-2 2-5 3-7 0-1 0-3 1-4 0-2 1-4 1-6 1-4 2-7 2-11 0 0 0 0 0 0 1-4 4-7 7-9 2 0 3 0 4 0l2 0c0 0 1 0 1 0 3 0 6 0 9-1 0 0 1 0 2 0 2 0 4-1 6-1 1 0 2-1 2-1 3-1 5-1 8-3 0 0 1 0 2 0 1-1 3-2 5-3 1-1 2-1 2-2 2-1 4-2 5-3 1-1 1-1 2-1 2-2 4-4 6-6 0 0 1-1 1-1 2-2 3-4 5-6 0 0 0-1 1-1 1-2 3-5 4-7 5-10 8-20 8-32 0-37-31-67-68-67-6 0-10-5-10-11 0-6 4-10 10-10 49 0 89 39 89 88 0 10-2 20-5 29 28 10 51 31 64 59 1 4 1 8-1 11z m-72-50c0 0 0 0 0 0-2 2-4 5-6 7-1 1-1 2-2 3-1 1-3 2-4 4-1 1-2 2-3 3-1 1-3 2-4 3-1 1-2 2-3 3-3 1-5 3-7 4-2 1-3 2-4 2-2 1-3 2-5 3-1 0-2 1-4 1-1 1-3 2-5 2-1 1-2 1-3 2-2 0-4 1-7 1-1 0-2 0-3 1-3 0-6 1-9 1 0 0 0 0 0 1-1 3-2 7-3 10 0 2-1 4-2 5 0 2-1 4-1 5-1 3-2 5-3 7 0 1-1 2-1 3-1 3-3 5-4 7 0 1 0 1 0 2-3 4-6 9-8 13-1 1-2 2-3 3-1 2-2 4-3 5-1 2-3 3-4 5-1 1-2 2-3 4-1 0-2 1-2 2 10 28 35 49 65 54-2-8-4-17-4-26 0-53 40-98 91-106-11-16-27-29-46-34z m-194-98c-2 4-5 7-10 9-9 4-19 0-23-9l-22-54c-4-10-5-21 0-32 9-21 33-31 55-22 21 9 31 33 22 54z"/>
<glyph unicode="&#108;" d="M502 349l-71 0-19 70c-3 11-15 20-26 20l-64 0 0 29c0 5-5 10-11 10l-113 0c-5 0-10-5-10-10l0-29-62 0c-12 0-23-9-26-20l-19-70-71 0c-5 0-10-5-10-10l0-41c0-6 5-10 10-10l30 0c-7-6-11-15-11-23l0-134c0-11 9-21 20-21l36 0 0-77 76 0 0 77 188 0 0-77 76 0 0 77 37 0c12 0 21 10 21 21l0 134c0 8-5 17-11 23l30 0c5 0 10 4 10 10l0 41c0 5-5 10-10 10z m-398-53l28 103c1 4 5 7 9 7l228 0c4 0 8-3 9-7l28-103c1-2 0-6-2-8-2-2-4-4-7-4l-284 0c-3 0-6 2-8 4-2 2-2 6-1 8z m-84 33l55 0-2-8c-1-5-3-9-6-13l-47 0z m103-162c-21 0-38 17-38 38 0 21 17 38 38 38 21 0 38-17 38-38 0-21-17-38-38-38z m264 0c-21 0-38 17-38 38 0 21 17 38 38 38 21 0 38-17 38-38 0-21-17-38-38-38z m104 141l-46 0c-3 4-5 8-6 13l-2 8 54 0z"/>
<glyph unicode="&#109;" d="M482 506c-2 4-5 6-10 6l-303 0c-4 0-8-2-9-6l-128-282c-1-3-1-7 1-10 2-3 5-5 9-5l89 0-57-198c-2-5 0-9 4-12 2-1 4-1 5-1 3 0 6 0 8 2l331 306c4 3 5 7 3 11-2 4-5 7-10 7l-83 0 148 171c3 3 4 7 2 11z m-180-186c-3-3-4-7-2-11 2-4 5-6 9-6l80 0-285-262 51 176c1 3 0 6-2 9-2 2-5 4-8 4l-87 0 118 261 274 0z"/>
<glyph unicode="&#110;" d="M417 332c-15 78-85 136-166 136-69 0-131-43-157-107-54-10-94-59-94-114 0-65 53-117 117-117 7 0 12 5 12 12 0 6-5 12-12 12-51 0-93 41-93 93 0 46 35 86 81 92 4 0 8 3 9 8 21 58 76 97 137 97 73 0 135-54 144-126 1-6 6-11 12-10l2 0c1 0 1 0 2 0 42 0 77-35 77-77 0-43-35-77-77-77-7 0-12-6-12-12 0-7 5-12 12-12 56 0 101 45 101 101 0 53-42 97-95 101z m-142-158c-2 5-6 9-11 11-10 4-22-1-27-11l-25-61c-5-11-5-24 0-37 10-24 38-35 63-25 24 10 35 38 25 62z"/>
<glyph unicode="&#111;" d="M411 86l-294 0c-64 0-117 52-117 117 0 55 40 104 94 114 26 64 88 107 157 107 81 0 151-58 166-136 53-4 95-48 95-101 0-56-45-101-101-101z m-160 314c-61 0-116-39-137-97-1-5-5-8-9-8-46-6-81-46-81-92 0-52 42-93 93-93l294 0c42 0 77 34 77 77 0 42-35 77-77 77-1 0-1 0-2 0l-2 0c-6 0-11 4-12 10-9 72-71 126-144 126z"/>
<glyph unicode="&#112;" d="M200 143c-2 4-4 6-8 8-8 3-16 0-19-8l-19-44c-3-8-4-18 0-27 8-17 28-26 46-18 17 7 26 28 18 45z m140 259c4 0 8 4 8 9l0 43c0 5-4 9-8 9-5 0-9-4-9-9l0-43c0-5 4-9 9-9z m161-101l-43 0c-5 0-9-3-9-8 0-5 4-9 9-9l43 0c4 0 8 4 8 9 0 5-4 8-8 8z m-251 69c2-2 4-2 6-2 2 0 4 0 6 2 4 4 4 9 0 12l-30 31c-4 3-9 3-13 0-3-4-3-9 0-13z m179-155c-3 4-9 4-12 0-3-3-3-9 0-12l30-30c2-2 4-3 6-3 3 0 5 1 7 3 3 3 3 9 0 12z m-6 153c2 0 5 0 6 2l31 30c3 4 3 9 0 13-4 3-9 3-13 0l-30-31c-3-3-3-8 0-12 2-2 4-2 6-2z m5-75c0 49-39 89-88 89-35 0-66-21-81-52-21 17-48 27-76 27-51 0-96-31-114-78-40-7-69-42-69-83 0-47 38-85 85-85 5 0 9 4 9 9 0 4-4 8-9 8-37 0-68 31-68 68 0 34 26 63 59 67 3 0 6 3 7 6 15 42 55 71 100 71 29 0 55-12 75-32 1-1 2-2 3-4 1 0 2-1 2-2 2-2 3-3 4-5 1-1 1-1 2-2 1-2 2-4 3-5 1-1 1-2 1-2 2-2 3-4 4-6 0-1 0-1 1-2 1-2 2-4 2-6 1-1 1-2 1-3 1-2 2-3 2-5 1-2 1-3 1-4 1-2 1-3 2-5 0-3 1-6 1-9 1-3 3-6 6-7 1 0 2-1 3-1l2 1c0 0 0 0 1 0 2 0 4-1 7-1 0 0 1 0 2 0 1 0 3-1 5-1 0 0 1-1 2-1 2 0 4-1 6-2 0 0 1 0 1-1 2 0 3-1 5-2 1 0 1-1 2-1 1-1 3-2 4-3 0 0 1-1 1-1 2-2 4-3 5-5 1 0 1-1 1-1 2-1 3-3 4-4 0-1 0-1 1-1 1-2 2-4 3-7 5-7 7-16 7-26 0-31-25-56-56-56-5 0-9-4-9-8 0-5 4-9 9-9 40 0 73 33 73 73 0 9-1 17-4 25 36 12 60 46 60 84z m-67-69c-1 1-1 1-1 1-1 2-2 4-4 6-1 0-1 1-2 2-1 1-2 2-3 3-1 1-2 2-3 3-1 1-2 2-3 2-1 1-2 2-3 3-1 1-3 2-5 3-1 1-2 2-4 2-1 1-2 2-3 2-2 1-3 1-4 2-1 0-2 1-4 1-1 1-2 1-3 1-2 1-3 1-5 1-1 1-2 1-3 1-2 0-5 1-8 1 0 0 0 0 0 1 0 2-1 5-2 8 0 2-1 3-1 5-1 1-1 2-2 4 0 2-1 3-2 5 0 1-1 2-1 3-1 2-2 4-3 6 0 0 0 0 0 1-2 4-5 7-7 11-1 1-1 2-2 3-1 1-2 3-3 4-1 1-2 2-3 4-1 1-2 2-3 3 0 1-1 1-1 2 10 27 37 46 67 46 39 0 71-32 71-71 0-32-21-59-50-69z"/>
<glyph unicode="&#113;" d="M340 370c4 0 8 4 8 9l0 43c0 5-4 9-8 9-5 0-9-4-9-9l0-43c0-5 4-9 9-9z m161-101l-43 0c-5 0-9-3-9-8 0-5 4-9 9-9l43 0c4 0 8 4 8 9 0 5-4 8-8 8z m-251 69c2-2 4-2 6-2 2 0 4 0 6 2 4 4 4 9 0 12l-30 31c-4 3-9 3-13 0-3-4-3-9 0-13z m179-155c-3 4-9 4-12 0-3-3-3-9 0-12l30-30c2-2 4-3 6-3 3 0 5 1 7 3 3 3 3 9 0 12z m-6 153c2 0 5 0 6 2l31 30c3 4 3 9 0 13-4 3-9 3-13 0l-30-31c-3-3-3-8 0-12 2-2 4-2 6-2z m5-75c0 49-39 89-88 89-35 0-66-21-81-52-21 17-48 27-76 27-51 0-96-31-114-78-40-7-69-42-69-83 0-47 38-85 85-85l214 0c40 0 73 33 73 73 0 9-1 17-4 25 36 12 60 46 60 84z m-129-165l-214 0c-37 0-68 31-68 68 0 34 26 63 59 67 3 0 6 3 7 6 15 42 55 71 100 71 29 0 55-12 75-32 1-1 2-2 3-4 1 0 2-1 2-2 2-2 3-3 4-5 1-1 1-1 2-2 1-2 2-4 3-5 1-1 1-2 1-2 2-2 3-4 4-6 0-1 0-1 1-2 1-2 2-4 2-6 1-1 1-2 1-3 1-2 2-3 2-5 1-2 1-3 1-4 1-2 1-3 2-5 0-3 1-6 1-9 1-4 5-8 9-8l2 1c0 0 0 0 1 0 2 0 4-1 7-1 0 0 1 0 2 0 1 0 3-1 5-1 0 0 1-1 2-1 2 0 4-1 6-2 0 0 1 0 1-1 2 0 3-1 5-2 1 0 1-1 2-1 1-1 3-2 4-3 0 0 1-1 1-1 2-2 4-3 5-5 1 0 1-1 1-1 2-1 3-3 4-4 0-1 0-1 1-1 1-2 2-4 3-6 5-8 7-17 7-27 0-30-25-56-56-56z m62 96c-1 1-1 1-1 1-1 2-2 4-4 6-1 0-1 1-2 2-1 1-2 2-3 3-1 1-2 2-3 3-1 1-2 2-3 2-1 1-2 2-3 3-1 1-3 2-4 3-2 1-3 2-5 2-1 1-2 2-3 2-2 1-3 1-4 2-1 0-2 1-4 1-1 1-2 1-3 1-2 1-3 1-5 1-1 1-2 1-3 1-2 0-5 1-8 1 0 0 0 0 0 1 0 2-1 5-2 8 0 2-1 3-1 5-1 1-1 2-2 4 0 2-1 3-2 5 0 1-1 2-1 3-1 2-2 4-3 6 0 0 0 0 0 1-2 4-5 8-7 11-1 1-1 2-2 3-1 1-2 3-3 4-1 1-2 2-3 4-1 1-2 2-3 3 0 1-1 1-1 2 10 27 37 46 67 46 39 0 71-32 71-71 0-32-21-59-50-69z"/>
<glyph unicode="&#114;" d="M340 420c4 0 8 4 8 8l0 43c0 5-4 9-8 9-5 0-9-4-9-9l0-43c0-4 4-8 9-8z m161-101l-43 0c-5 0-9-4-9-9 0-5 4-9 9-9l43 0c4 0 8 4 8 9 0 5-4 9-8 9z m-251 69c2-2 4-3 6-3 2 0 4 1 6 3 4 3 4 9 0 12l-30 30c-4 4-9 4-13 0-3-3-3-9 0-12z m179-155c-3 3-9 3-12 0-3-4-3-9 0-13l30-30c2-2 4-2 6-2 3 0 5 0 7 2 3 4 3 9 0 12z m-6 152c2 0 5 1 6 3l31 30c3 3 3 9 0 12-4 4-9 4-13 0l-30-30c-3-3-3-9 0-12 2-2 4-3 6-3z m5-75c0 49-39 89-88 89-35 0-66-21-81-51-21 16-48 26-76 26-51 0-96-30-114-77-40-8-69-43-69-84 0-46 38-85 85-85 5 0 9 4 9 9 0 5-4 9-9 9-37 0-68 30-68 67 0 34 26 63 59 67 3 1 6 3 7 6 15 43 55 71 100 71 29 0 55-12 74-31 2-2 3-3 4-4 1-1 2-2 2-3 2-1 3-3 4-5 1 0 1-1 2-1 1-2 2-4 3-6 1-1 1-1 1-2 2-2 3-4 4-6 0 0 0-1 1-2 1-2 2-4 2-6 1-1 1-1 1-2 1-2 2-4 2-6 1-1 1-2 1-4 1-1 1-3 2-5 0-2 1-5 1-7 0-1 0-1 0-1 1-3 2-5 3-6 2-1 3-2 5-2 0 0 1 0 1 0l2 0c0 0 0 0 1 0 2 0 4 0 7 0 0 0 1-1 2-1 1 0 3 0 5-1 0 0 1 0 2 0 2-1 4-2 6-2 0-1 1-1 1-1 2-1 3-2 5-3 1 0 1 0 2-1 1-1 3-2 4-3 0 0 1 0 1-1 2-1 4-3 5-4 1-1 1-1 1-1 2-2 3-3 4-5 0 0 0-1 1-1 1-2 2-4 4-6 4-8 6-17 6-26 0-31-25-56-56-56-5 0-9-4-9-9 0-5 4-9 9-9 40 0 73 33 73 74 0 8-1 17-4 24 36 12 60 46 60 84z m-67-68c-2 2-3 4-5 6-1 1-1 2-2 2-1 2-2 3-3 4-1 1-2 1-3 2-1 1-2 2-3 3-1 1-2 2-3 2-2 2-4 3-6 4 0 1-1 1-2 2-2 0-3 1-5 2-1 0-2 1-3 1-1 1-2 1-4 2-1 0-2 0-3 1-2 0-3 1-5 1-1 0-2 0-3 0-2 1-5 1-8 1 0 1 0 1 0 1 0 3-1 6-2 9 0 1-1 3-1 4-1 1-1 3-2 4 0 2-1 4-2 6 0 1-1 2-1 3-1 2-2 3-3 5 0 1 0 1 0 1-2 4-5 8-7 12-1 1-1 1-2 2-1 2-2 3-3 4-1 2-2 3-3 4-1 1-2 2-3 3 0 1-1 2-1 2 10 28 37 47 67 47 39 0 71-32 71-72 0-31-21-59-50-68z m-117-49c-4 0-8-4-8-9l0-114c0-4 4-8 8-8 5 0 9 4 9 8l0 114c0 5-4 9-9 9z m-58-29c-5 0-9-4-9-9l0-114c0-4 4-8 9-8 5 0 9 4 9 8l0 114c0 5-4 9-9 9z m-58 29c-5 0-9-4-9-9l0-114c0-4 4-8 9-8 5 0 9 4 9 8l0 114c0 5-4 9-9 9z"/>
<glyph unicode="&#115;" d="M340 420c4 0 8 4 8 8l0 43c0 5-4 9-8 9-5 0-9-4-9-9l0-43c0-4 4-8 9-8z m161-101l-43 0c-5 0-9-4-9-9 0-5 4-9 9-9l43 0c4 0 8 4 8 9 0 5-4 9-8 9z m-251 69c2-2 4-3 6-3 2 0 4 1 6 3 4 3 4 9 0 12l-30 30c-4 4-9 4-13 0-3-3-3-9 0-12z m179-155c-3 3-9 3-12 0-3-4-3-9 0-13l30-30c2-2 4-2 6-2 3 0 5 0 7 2 3 4 3 9 0 12z m-6 152c2 0 5 1 6 3l31 30c3 3 3 9 0 12-4 4-9 4-13 0l-30-30c-3-3-3-9 0-12 2-2 4-3 6-3z m5-75c0 49-39 89-88 89-35 0-66-21-81-51-21 16-48 26-76 26-51 0-96-30-114-77-40-8-69-43-69-84 0-46 38-85 85-85 5 0 9 4 9 9 0 5-4 9-9 9-37 0-68 30-68 67 0 34 26 63 59 67 3 1 6 3 7 6 15 43 55 71 100 71 29 0 55-12 75-31 1-2 2-3 3-4 1-1 2-2 2-3 2-1 3-3 4-4 1-1 1-2 2-3 1-1 2-3 3-5 1-1 1-1 1-2 2-2 3-4 4-6 0 0 0-1 1-2 1-2 2-4 2-6 1-1 1-2 1-2 1-2 2-4 2-6 1-1 1-3 2-4 0-2 0-3 1-4 0-3 1-6 1-10 1-3 3-6 6-7 1 0 2 0 3 0l2 0c0 0 0 0 1 0 2 0 4 0 7 0 0-1 1-1 2-1 1 0 3 0 5-1 0 0 1 0 2 0 2-1 4-2 6-2 0-1 1-1 1-1 2-1 3-2 5-3 1 0 1 0 2-1 1-1 3-2 4-3 0 0 1 0 1-1 2-1 4-3 5-4 1-1 1-1 1-1 2-2 3-3 4-5 0 0 0-1 1-1 1-2 2-4 4-6 4-8 6-17 6-26 0-31-25-56-56-56-5 0-9-4-9-9 0-5 4-9 9-9 40 0 73 33 73 74 0 8-1 17-4 24 36 12 60 46 60 84z m-67-68c-2 2-3 4-5 6-1 1-1 2-2 2-1 1-2 3-3 4-1 1-2 1-3 2-1 1-2 2-3 3-1 1-2 2-3 2-2 2-4 3-6 4 0 1-1 1-2 2-2 0-3 1-5 2-1 0-2 1-3 1-1 1-2 1-4 2-1 0-2 0-3 1-2 0-3 1-5 1-1 0-2 0-3 0-2 1-5 1-8 1 0 1 0 1 0 1 0 3-1 6-2 9 0 1-1 2-1 4-1 1-1 3-2 4 0 2-1 4-2 5 0 2-1 3-1 4-1 2-2 3-3 5 0 1 0 1 0 1-2 4-5 8-7 12-1 1-1 1-2 2-1 2-2 3-3 4-1 2-2 3-3 4-1 1-2 2-3 3 0 1-1 2-1 2 10 28 37 47 67 47 39 0 71-32 71-72 0-31-21-59-50-68z m-233-49c-5 0-9-4-9-9l0-38c0-5 4-9 9-9 5 0 9 4 9 9l0 38c0 5-4 9-9 9z m58-105c-5 0-9-4-9-9l0-38c0-4 4-8 9-8 5 0 9 4 9 8l0 38c0 5-4 9-9 9z m58 105c-4 0-8-4-8-9l0-38c0-5 4-9 8-9 5 0 9 4 9 9l0 38c0 5-4 9-9 9z m0-76c-4 0-8-4-8-9l0-38c0-4 4-8 8-8 5 0 9 4 9 8l0 38c0 5-4 9-9 9z m-58 47c-5 0-9-4-9-9l0-38c0-5 4-9 9-9 5 0 9 4 9 9l0 38c0 5-4 9-9 9z m-58-47c-5 0-9-4-9-9l0-38c0-4 4-8 9-8 5 0 9 4 9 8l0 38c0 5-4 9-9 9z"/>
<glyph unicode="&#116;" d="M254 89c1 2 2 5 1 7-1 5-6 8-11 6l-9-2-17 10 17 10 9-3c1 0 2 0 3 0 4 0 7 2 8 6 1 3 0 5-1 7 4 3 5 8 3 12-3 4-8 6-12 4-1 2-3 4-6 4-4 2-9-1-10-6l-3-9-17-10 0 19 7 7c4 4 4 9 0 13-2 2-4 2-7 2 0 5-4 9-9 9-4 0-8-4-8-9-3 0-5 0-7-2-4-4-4-9 0-13l7-6 0-20-17 10-3 9c-1 5-6 8-11 6-2 0-4-2-5-4-4 2-9 0-12-4-2-4-1-9 3-12-1-2-2-4-1-7 1-4 4-6 8-6 1 0 2 0 2 0l10 3 17-10-17-10-10 2c-4 2-9-1-10-6-1-2 0-5 1-7-4-2-5-8-3-12 2-3 5-4 8-4 1 0 3 0 4 1 1-2 3-4 5-5 1 0 2 0 3 0 4 0 7 2 8 6l3 10 17 10 0-20-7-7c-4-3-4-9 0-12 2-2 4-3 7-3 0-4 4-8 8-8 5 0 9 4 9 8 0 0 1 0 1 0 2 0 4 1 6 3 4 3 4 9 0 12l-7 7 0 20 17-10 3-10c1-4 4-6 8-6 1 0 2 0 2 0 3 1 5 3 6 5 1-1 3-1 4-1 3 0 6 1 8 4 2 4 1 10-3 12z m86 319c4 0 8 4 8 9l0 43c0 4-4 8-8 8-5 0-9-4-9-8l0-43c0-5 4-9 9-9z m161-101l-43 0c-5 0-9-4-9-8 0-5 4-9 9-9l43 0c4 0 8 4 8 9 0 4-4 8-8 8z m-251 69c2-2 4-3 6-3 2 0 4 1 6 3 4 3 4 9 0 12l-30 31c-4 3-9 3-13 0-3-4-3-9 0-13z m179-155c-3 4-9 4-12 0-3-3-3-9 0-12l30-31c2-1 4-2 6-2 3 0 5 1 7 2 3 4 3 9 0 13z m-6 152c2 0 5 1 6 3l31 30c3 4 3 9 0 13-4 3-9 3-13 0l-30-31c-3-3-3-9 0-12 2-2 4-3 6-3z m5-74c0 49-39 88-88 88-35 0-66-20-81-51-21 17-48 27-76 27-51 0-96-31-114-78-40-8-69-43-69-83 0-47 38-85 85-85 5 0 9 4 9 8 0 5-4 9-9 9-37 0-68 31-68 68 0 34 26 62 59 67 3 0 6 2 7 6 15 42 55 70 100 70 29 0 55-12 75-31 1-1 2-2 3-4 1-1 2-1 2-2 2-2 3-3 4-5 1-1 1-1 2-2 1-2 2-4 3-6 1 0 1-1 1-1 2-2 3-4 4-6 0-1 0-2 1-2 1-2 2-4 2-6 1-1 1-2 1-3 1-2 2-4 2-6 1-1 1-2 1-3 1-2 1-4 2-5 0-3 1-6 1-9 1-3 3-6 6-7 1-1 2-1 3-1l2 0c0 0 0 0 1 0 2 0 4 0 7 0 0 0 1 0 2 0 1-1 3-1 5-1 0-1 1-1 2-1 2-1 4-1 6-2 0 0 1-1 1-1 2-1 3-1 5-2 1-1 1-1 2-1 1-1 3-2 4-3 0-1 1-1 1-1 2-2 4-3 5-5 1 0 1-1 1-1 2-2 3-3 4-4 0-1 0-1 1-2 1-2 2-4 3-6 5-7 7-16 7-26 0-31-25-56-56-56-5 0-9-4-9-9 0-4 4-8 9-8 40 0 73 33 73 73 0 9-1 17-4 25 36 12 60 45 60 84z m-67-69c-1 0-1 0-1 1-1 2-2 4-4 5-1 1-1 2-2 3-1 1-2 2-3 3-1 1-2 2-3 3-1 1-2 1-3 2-1 1-2 2-3 3-2 1-3 2-5 3-1 1-2 2-3 2-2 1-3 1-4 2-2 1-3 1-4 1-1 1-2 2-4 2-1 0-2 1-3 1-2 0-3 1-5 1-1 0-2 1-3 1-2 0-5 1-8 1 0 0 0 0 0 0 0 3-1 6-2 9 0 1-1 3-1 4-1 2-1 3-2 5 0 1-1 3-2 5 0 1-1 2-1 3-1 2-2 4-3 6 0 0 0 0 0 1-2 4-5 7-7 11-1 1-1 2-2 3-1 1-2 2-3 4-1 1-2 2-3 3-1 2-2 3-3 4 0 0-1 1-1 2 10 27 37 46 67 46 39 0 71-32 71-71 0-32-21-60-50-69z"/>
<glyph unicode="&#117;" d="M231 402l51 0c7 0 12 6 12 12 0 7-5 13-12 13l-51 0c-7 0-12-6-12-13 0-6 5-12 12-12z m-94-53l237 0c7 0 12 5 12 12 0 7-5 12-12 12l-237 0c-7 0-13-5-13-12 0-7 6-12 13-12z m363-189l-473 0c-7 0-13-5-13-12 0-6 6-12 13-12l473 0c7 0 12 6 12 12 0 7-5 12-12 12z m-83-53l-298 0c-7 0-12-5-12-12 0-7 5-12 12-12l298 0c7 0 13 5 13 12 0 7-6 12-13 12z m-312 189l301 0c6 0 12 5 12 12 0 7-6 12-12 12l-301 0c-7 0-12-5-12-12 0-7 5-12 12-12z m410-95c0 7-5 13-12 13l-491 0c-7 0-12-6-12-13 0-6 5-12 12-12l491 0c7 0 12 6 12 12z m-489 42l450 0c7 0 12 5 12 12 0 6-5 12-12 12l-450 0c-6 0-12-6-12-12 0-7 6-12 12-12z"/>
<glyph unicode="&#118;" d="M340 414c4 0 8 4 8 9l0 42c0 5-4 9-8 9-5 0-9-4-9-9l0-42c0-5 4-9 9-9z m161-101l-43 0c-5 0-9-4-9-9 0-4 4-8 9-8l43 0c4 0 8 4 8 8 0 5-4 9-8 9z m-251 69c2-2 4-3 6-3 2 0 4 1 6 3 4 3 4 9 0 12l-30 30c-4 4-9 4-13 0-3-3-3-8 0-12z m179-155c-3 3-9 3-12 0-3-3-3-9 0-12l30-31c2-1 4-2 6-2 3 0 5 1 7 2 3 4 3 9 0 13z m-6 152c2 0 5 1 6 3l31 30c3 3 3 9 0 12-4 4-9 4-13 0l-30-30c-3-3-3-9 0-12 2-2 4-3 6-3z m5-75c0 49-39 89-88 89-35 0-66-20-81-51-21 17-48 27-76 27-51 0-96-31-114-78-40-8-69-43-69-83 0-47 38-86 85-86 5 0 9 4 9 9 0 5-4 9-9 9-37 0-68 30-68 68 0 33 26 62 59 67 3 0 6 2 7 5 15 43 55 71 100 71 29 0 55-12 75-31 1-1 2-3 3-4 1-1 2-2 2-3 2-1 3-3 4-4 1-1 1-2 2-2 1-2 2-4 3-6 1 0 1-1 1-2 2-2 3-4 4-6 0 0 0-1 1-2 1-2 2-4 2-6 1 0 1-1 1-2 1-2 2-4 2-6 1-1 1-2 1-4 1-1 1-3 2-4 0-3 1-6 1-9 1-5 5-8 9-8l2 0c0 0 0 0 1 0 2 0 4 0 7 0 0 0 1 0 2-1 1 0 3 0 5-1 0 0 1 0 2 0 2-1 4-1 6-2 0-1 1-1 1-1 2-1 3-1 5-2 1-1 1-1 2-2 1 0 3-1 4-2 0-1 1-1 1-2 2-1 4-2 5-4 1 0 1-1 1-1 2-2 3-3 4-5 0 0 0 0 1-1 1-2 2-4 3-6 5-8 7-17 7-26 0-31-25-56-56-56-5 0-9-4-9-9 0-5 4-9 9-9 40 0 73 34 73 74 0 9-1 17-4 24 36 12 60 46 60 84z m-67-68c-1 0-1 0-1 0-1 2-2 4-4 6-1 1-1 2-2 3-1 1-2 2-3 3-1 1-2 2-3 2-1 1-2 2-3 3-1 1-2 2-3 2-1 2-3 3-5 4-1 1-2 1-4 2-1 1-2 1-3 2-2 0-3 1-4 1-1 1-2 1-4 2-1 0-2 1-3 1-2 0-3 1-5 1-1 0-2 0-3 1-2 0-5 0-8 1 0 0 0 0 0 0 0 3-1 6-2 9 0 1-1 3-1 4-1 2-1 3-2 5 0 1-1 3-2 5 0 1-1 2-1 3-1 2-2 4-3 5 0 1 0 1 0 2-2 3-5 7-7 11-1 1-1 2-2 3-1 1-2 2-3 3-1 2-2 3-3 4-1 1-2 2-3 4 0 0-1 1-1 1 10 28 37 47 67 47 39 0 71-32 71-72 0-31-21-59-50-68z m-233-78c-5 0-9-4-9-9l0-44c0-4 4-8 9-8 5 0 9 4 9 8l0 44c0 5-4 9-9 9z m58-58c-5 0-9-4-9-9l0-44c0-5 4-9 9-9 5 0 9 4 9 9l0 44c0 5-4 9-9 9z m58 58c-4 0-8-4-8-9l0-44c0-4 4-8 8-8 5 0 9 4 9 8l0 44c0 5-4 9-9 9z"/>
<glyph unicode="&#119;" d="M417 344c-15 78-85 136-166 136-69 0-131-43-157-107-54-10-94-59-94-114 0-65 53-117 117-117 7 0 12 5 12 12 0 6-5 12-12 12-51 0-93 41-93 93 0 46 35 86 81 92 4 0 8 3 9 8 21 58 76 97 137 97 73 0 135-54 144-126 1-6 6-10 12-10l2 0c1 0 1 0 2 0 42 0 77-35 77-77 0-43-35-77-77-77-7 0-12-6-12-12 0-7 5-12 12-12 56 0 101 45 101 101 0 53-42 97-95 101z m-255-172c-4-4-6-9-6-14 0-5 2-10 6-14 4-4 9-6 14-6 5 0 10 2 14 6 4 4 6 9 6 14 0 5-2 10-6 14-7 8-21 8-28 0z m80-104c-4-4-6-9-6-14 0-5 2-10 6-14 4-4 9-6 14-6 5 0 10 2 14 6 4 4 6 9 6 14 0 5-2 10-6 14-7 8-21 8-28 0z m80 104c-4-4-6-9-6-14 0-5 2-10 6-14 4-4 9-6 14-6 5 0 10 2 14 6 4 4 6 9 6 14 0 5-2 10-6 14-7 8-21 8-28 0z m0-64c-4-4-6-9-6-14 0-5 2-10 6-14 4-4 9-6 14-6 5 0 10 2 14 6 4 4 6 9 6 14 0 5-2 10-6 14-7 8-21 8-28 0z m-80 24c-4-4-6-9-6-14 0-5 2-10 6-14 4-4 9-6 14-6 5 0 10 2 14 6 4 4 6 9 6 14 0 5-2 10-6 14-7 8-21 8-28 0z m-80-24c-4-4-6-9-6-14 0-5 2-10 6-14 4-4 9-6 14-6 5 0 10 2 14 6 4 4 6 9 6 14 0 5-2 10-6 14-7 8-21 8-28 0z"/>
<glyph unicode="&#120;" d="M417 356c-15 78-85 136-166 136-69 0-131-43-157-107-54-10-94-59-94-114 0-65 53-117 117-117 7 0 12 5 12 12 0 6-5 12-12 12-51 0-93 41-93 93 0 46 35 86 81 92 4 0 8 3 9 8 21 58 76 97 137 97 73 0 135-54 144-126 1-6 6-10 12-10l2 0c1 0 1 0 2 0 42 0 77-35 77-77 0-43-35-77-77-77-7 0-12-6-12-12 0-7 5-12 12-12 56 0 101 45 101 101 0 53-42 97-95 101z m-81-114c-7 0-12-5-12-12l0-156c0-7 5-12 12-12 7 0 12 5 12 12l0 156c0 7-5 12-12 12z m-80-40c-7 0-12-5-12-12l0-156c0-7 5-12 12-12 7 0 12 5 12 12l0 156c0 7-5 12-12 12z m-80 40c-7 0-12-5-12-12l0-156c0-7 5-12 12-12 7 0 12 5 12 12l0 156c0 7-5 12-12 12z"/>
<glyph unicode="&#121;" d="M123 248c-27 0-49-22-49-48 0-27 22-49 49-49 26 0 48 22 48 49 0 26-22 48-48 48z m0-76c-16 0-28 12-28 28 0 15 12 27 28 27 15 0 28-12 28-27 0-16-13-28-28-28z m264 76c-27 0-49-22-49-48 0-27 22-49 49-49 26 0 48 22 48 49 0 26-22 48-48 48z m0-76c-16 0-28 12-28 28 0 15 12 27 28 27 15 0 28-12 28-27 0-16-13-28-28-28z m-284 102l304 0c3 0 6 2 8 4 2 3 3 6 2 9l-30 111c-2 4-6 7-10 7l-244 0c-4 0-8-3-10-7l-30-111c-1-3-1-6 1-9 2-2 5-4 9-4z m38 111l228 0 25-90-278 0z m361-41l-60 0-20 72c-4 16-20 28-36 28l-29 0 0 37c0 6-5 11-11 11l-183 0c-5 0-10-5-10-11l0-37-27 0c-16 0-32-12-36-28l-20-72-60 0c-5 0-10-5-10-11l0-41c0-5 5-10 10-10l16 0c-4-7-7-15-7-23l0-134c0-17 13-30 30-30l25 0 0-47c0-17 14-31 31-31l35 0c17 0 31 14 31 31l0 47 167 0 0-47c0-17 14-31 31-31l35 0c17 0 31 14 31 31l0 47 27 0c17 0 31 13 31 30l0 134c0 8-3 16-7 23l16 0c5 0 10 5 10 10l0 41c0 6-5 11-10 11z m-328 127l162 0 0-27-162 0z m-154-148l45 0-2-5c-1-5-5-11-10-15l-33 0z m131-275c0-6-5-10-11-10l-35 0c-5 0-10 4-10 10l0 47 56 0z m264 0c0-6-5-10-11-10l-35 0c-6 0-10 4-10 10l0 47 56 0z m58 77c0-5-5-10-11-10l-36 0c-1 0-1 0-1 0 0 0-1 0-1 0l-75 0c0 0 0 0 0 0-1 0-1 0-1 0l-186 0c-1 0-1 0-1 0 0 0-1 0-1 0l-74 0c-1 0-1 0-1 0-1 0-1 0-1 0l-35 0c-5 0-10 5-10 10l0 134c0 7 6 16 13 19l0 0c14 6 27 20 31 34l27 99c2 6 9 12 16 12l260 0c7 0 14-6 16-12l27-99c4-14 17-28 30-34l1 0c7-3 13-12 13-19l0-134z m18 178l-32 0c-5 4-9 10-10 15l-2 5 44 0z"/>
<glyph unicode="&#122;" d="M488 165c-80-15-272-20-334-20-106-1-153 94-153 95-5 10 19 15 43 10 10-2 18-10 26-18 9-9 43-25 56-25 16 0 57 4 74 5l-182 137c-3 2-4 6-3 9 2 3 5 6 8 6l38 4c12 1 19-4 31-10l229-134c110 11 131 3 159-9 44-18 30-46 8-50z"/>
<glyph unicode="&#65;" d="M257 512c-102 0-185-83-185-186 0-162 185-325 185-325 0 0 186 163 186 325 0 103-83 186-186 186z m0-290c-50 0-90 41-90 91 0 49 40 90 90 90 50 0 90-41 90-90 0-50-40-91-90-91z"/>
<glyph unicode="&#66;" d="M512 423c-6 5-15 5-21 0l-306-307-161 161c-5 6-14 6-20 0-5-5-5-14 0-20l171-171c3-3 7-4 10-4 4 0 8 1 10 4l317 316c5 6 5 15 0 21z"/>
<glyph unicode="&#67;" d="M257 512c-104 0-188-85-188-189 0-67 30-141 91-220 44-59 88-97 90-99 2-2 5-3 7-3 3 0 5 1 7 3 2 2 46 40 91 99 60 79 91 153 91 220 0 104-85 189-189 189z m0-485c-33 31-167 165-167 296 0 92 75 167 167 167 92 0 167-75 167-167 0-131-134-265-167-296z m0 380c-53 0-97-43-97-97 0-53 44-97 97-97 54 0 97 44 97 97 0 54-43 97-97 97z m0-172c-41 0-75 34-75 75 0 42 34 76 75 76 42 0 76-34 76-76 0-41-34-75-76-75z"/>
<glyph unicode="&#68;" d="M470 474c-25 24-59 38-95 38-42 0-83-17-113-48l-107-107-107-107c-29-28-46-66-48-105-2-40 12-76 38-103 25-24 59-38 96-38l0 0c41 0 82 17 113 48l106 107 107 106c29 29 46 67 48 106 2 40-12 76-38 103z m-27-191l-98-98-164 163 98 99c26 25 61 40 96 40 30 0 57-11 77-31 45-45 41-123-9-173z"/>
<glyph unicode="&#69;" d="M403 322c-3-7 0-14 7-17 1 0 3-1 4-1 5 0 10 3 12 8 20 47 20 101-1 148-2 6-10 9-16 6-6-3-9-10-6-16 17-41 18-88 0-128z m43-22c-3-6 0-14 6-16 2-1 4-2 6-2 4 0 9 3 11 8 27 61 27 131-1 192-3 6-10 9-16 6-6-3-9-10-6-16 24-55 25-117 0-172z m-191-42c53 0 99 33 118 80l-95 47 94 49c-19 46-64 78-117 78-70 0-127-57-127-127 0-70 57-127 127-127z m119-71l-238 0c-67 0-121-53-124-119l0-54c0-7 6-13 13-13l62 0 0 63c0 6 5 12 12 12 7 0 12-6 12-12l0-63 288 0 0 63c0 6 6 12 13 12 6 0 12-6 12-12l0-63 62 0c7 0 12 6 12 13l0 54c-2 66-57 119-124 119z"/>
<glyph unicode="&#70;" d="M397 318c-3-6 0-12 6-15 1-1 3-1 4-1 5 0 9 3 11 7 20 45 19 97 0 141-3 6-10 9-16 6-6-2-9-9-6-15 17-39 17-84 1-123z m41-20c-3-6 0-13 6-16 1 0 3-1 4-1 5 0 9 3 11 7 26 59 26 125 0 184-3 5-10 8-16 5-6-2-9-9-6-15 24-52 24-112 1-164z m-69-96l-227 0c-72 0-130-58-130-130l0-59c0-7 5-12 12-12l463 0c7 0 12 5 12 12l0 59c0 72-58 130-130 130z m107-177l-60 0 0 47c0 7-5 12-11 12-7 0-12-5-12-12l0-47-275 0 0 47c0 7-5 12-12 12-6 0-11-5-11-12l0-47-60 0 0 47c0 59 48 107 107 107l227 0c59 0 107-48 107-107z m-220 221c54 0 102 33 123 83 2 6-1 13-6 15l-69 35 69 36c5 3 8 9 5 15-20 50-69 82-122 82-74 0-133-60-133-133 0-73 59-133 133-133z m0 242c40 0 77-22 96-57l-80-41c-4-2-6-6-6-11 0-4 2-8 6-10l80-40c-19-36-55-59-96-59-61 0-110 49-110 109 0 60 49 109 110 109z"/>
<glyph unicode="&#71;" d="M415 374l27 26c2 2 3 4 3 7 0 2-1 5-3 7l-29 28c-4 4-10 4-13 0l-27-26c-72 62-163 96-259 96-12 0-25-1-37-2-5 0-8-4-9-8 0-5 3-9 7-10 88-30 167-76 235-139l-307-307c-4-4-4-10 0-14l29-29c1-2 4-3 6-3 3 0 5 1 7 3l308 308c62-68 109-148 138-236 1-4 5-6 9-6 1 0 1 0 1 0 5 0 8 4 9 8 10 109-24 215-95 297z m-9 48l15-15-19-19c-2 2-4 5-7 8-2 2-5 5-8 7z m-67-97l-301-301-15 15 301 301c0 0 0 0 0 0 3-2 6-5 8-7 3-3 5-6 8-8 0 0-1 0-1 0z m7 21c-64 64-137 113-219 147 96-4 186-43 255-111 68-68 107-159 110-254-34 81-83 155-146 218z"/>
<glyph unicode="&#72;" d="M503 118l-492 0c-6 0-11-5-11-11l0-81c0-6 5-11 11-11l492 0c6 0 11 5 11 11l0 81c0 6-5 11-11 11z m-11-81l-470 0 0 59 470 0z m-481 112c6 0 11 4 11 10 9 123 112 219 235 219 123 0 226-96 234-219 1-5 5-10 11-10 0 0 1 0 1 0 6 1 10 6 10 12-8 117-95 212-207 234l0 41c0 6-4 11-10 11l-29 0c1 0 1 1 1 1l0 27c0 0 0 1-1 1l29 0c6 0 10 5 10 11 0 6-4 11-10 11l-78 0c-6 0-11-5-11-11 0-6 5-11 11-11l28 0c0 0 0-1 0-1l0-27c0 0 0-1 0-1l-28 0c-6 0-11-5-11-11l0-41c-111-22-198-117-206-234-1-6 4-11 10-12z m218 276l56 0 0-27c-9 1-19 2-28 2-10 0-19-1-28-2z m-179-264c-1-6 4-11 10-12 0 0 0 0 1 0 5 0 10 4 10 10 9 95 90 170 186 170 6 0 11 5 11 11 0 6-5 11-11 11-107 0-198-84-207-190z"/>
<glyph unicode="&#73;" d="M480 361l-46 0c-1 0-2 0-3 0-1 1-1 2-1 3l-20 68c-3 10-14 20-25 21 0 0-50 6-130 6-80 0-130-6-130-6-11-1-23-11-26-21l-19-68c0-1-1-2-1-3-1 0-2 0-4 0l-45 0c-17 0-30-13-30-30l0-1c0-16 13-29 30-29l16 0-6-9c-6-10-11-26-11-37l0-111c0-11 9-20 20-20l35 0 0-71 76 0 0 71 187 0 0-71 76 0 0 71 38 0c11 0 20 9 20 20l0 111c0 11-5 27-11 37l-6 9 16 0c16 0 30 13 30 29l0 1c0 17-14 30-30 30z m-373-37l25 88c1 4 4 6 7 7 2 0 40 7 115 7 75 0 113-7 114-7 4-1 7-3 8-7l24-88c1-3 0-7-2-9-1-3-4-4-8-4l-273 0c-3 0-6 1-8 4-2 2-3 6-2 9z m-50-6c-1 2-3 2-6 2l-21 0c-6 0-10 5-10 10l0 1c0 6 4 10 10 10l41 0c-3-5-5-10-8-13z m50-62c16 0 30-14 30-30 0-17-14-31-30-31-17 0-31 14-31 31 0 16 14 30 31 30z m293-61c-16 0-30 14-30 31 0 16 14 30 30 30 17 0 31-14 31-30 0-17-14-31-31-31z m90 135c0-5-5-10-10-10l-22 0c-2 0-4 0-6-2l-6 10c-2 3-5 8-7 13l41 0c5 0 10-4 10-10z"/>
<glyph unicode="&#74;" d="M389 116c-21 0-39-17-39-39 0-21 18-39 39-39 22 0 39 18 39 39 0 22-17 39-39 39z m0-63c-13 0-24 11-24 24 0 13 11 24 24 24 13 0 24-11 24-24 0-13-11-24-24-24z m-211 63c-22 0-39-17-39-39 0-21 17-39 39-39 21 0 39 18 39 39 0 22-18 39-39 39z m0-63c-14 0-24 11-24 24 0 13 10 24 24 24 13 0 23-11 23-24 0-13-10-24-23-24z m332 368c-1 2-3 3-6 3l-415 0-11 44c-1 4-4 6-8 6l-62 0c-5 0-8-3-8-8 0-4 3-7 8-7l56 0 75-306c1-3 4-6 8-6l253 0c4 0 8 4 8 8 0 4-4 7-8 7l-247 0-14 57 303 0c3 0 6 2 7 5l62 190c1 2 1 5-1 7z m-53-124l-105 0 6 48 115 0z m-121 0l-95 0-3 48 105 0z m-92-63l-2 48 92 0-6-48z m-136 111l115 0 3-48-106 0z m129 16l-2 48 117 0-7-48z m-17 48l2-48-118 0-12 48z m-97-127l104 0 2-48-94 0z m313-48l-93 0 7 48 102 0z m42 127l-118 0 7 48 127 0z"/>
<glyph unicode="&#75;" d="M107 269c-23 0-41-18-41-40 0-22 18-40 41-40 22 0 40 18 40 40 0 22-18 40-40 40z m0-60c-12 0-21 9-21 20 0 11 9 20 21 20 11 0 20-9 20-20 0-11-9-20-20-20z m293 60c-22 0-40-18-40-40 0-22 18-40 40-40 23 0 41 18 41 40 0 22-18 40-41 40z m0-60c-11 0-20 9-20 20 0 11 9 20 20 20 12 0 21-9 21-20 0-11-9-20-21-20z m80 156l-39 0c-1 1-1 3-2 5l-19 68c-4 14-19 27-34 29 0 0-52 5-131 5-80 0-131-5-132-5-14-2-29-15-33-29l-20-68c0-2-1-4-1-5l-39 0c-17 0-30-14-30-30l0-1c0-17 13-30 30-30l4 0-3-4c-7-10-12-29-12-42l0-111c0-17 13-30 30-30l25 0 0-47c0-17 14-30 30-30l36 0c17 0 30 13 30 30l0 47 167 0 0-47c0-17 14-30 30-30l36 0c17 0 30 13 30 30l0 47 28 0c16 0 30 13 30 30l0 111c0 13-6 32-13 42l-2 4 4 0c16 0 30 13 30 30l0 1c0 16-14 30-30 30z m-450-41c-6 0-10 4-10 10l0 1c0 5 4 10 10 10l30 0c-2-3-3-6-5-9l-8-12z m120-254c0-6-4-10-10-10l-36 0c-5 0-10 4-10 10l0 47 56 0z m263 0c0-6-4-10-10-10l-36 0c-5 0-10 4-10 10l0 47 56 0z m58 77c0-6-5-10-10-10l-37 0c0 0-1 0-1 0 0 0-1 0-1 0l-74 0c0 0-1 0-1 0 0 0-1 0-1 0l-185 0c0 0-1 0-1 0 0 0-1 0-1 0l-74 0c0 0-1 0-1 0 0 0 0 0-1 0l-34 0c-6 0-10 4-10 10l0 111c0 9 4 24 9 31l24 36c4 7 9 17 13 26 0 0 0 0 0 0 2 5 3 9 4 13l20 68c2 7 10 14 17 15 0 0 50 5 129 5 78 0 128-5 129-5 7-1 15-8 17-15l19-68c1-4 3-8 5-13 0 0 0 0 0 0 4-9 8-19 13-26l24-36c5-7 9-22 9-31l0-111z m19 187c0-6-5-10-10-10l-17 0-9 12c-1 3-3 6-4 9l30 0c5 0 10-5 10-10z m-81-20c2 3 3 6 2 9l-26 96c-1 3-4 6-8 7-2 0-43 8-123 8-81 0-122-8-123-8-4-1-7-4-8-7l-27-96c-1-3 0-6 2-9 2-2 5-3 8-3l295 0c3 0 6 1 8 3z m-290 16l21 77c14 2 53 7 114 7 61 0 99-5 113-7l21-77z"/>
<glyph unicode="&#76;" d="M500 140c-3 5-77 115-236 119l0 47c0 5-4 9-9 9-29 0-52 23-52 52 0 29 23 52 52 52 29 0 52-23 52-52 0-5 4-9 9-9 6 0 10 4 10 9 0 39-32 71-71 71-39 0-71-32-71-71 0-36 27-66 62-70l0-38c-159-4-233-114-236-119-11-17-13-33-6-46 7-13 22-20 42-20l418 0c20 0 35 7 42 20 7 13 5 29-6 46z m-11-37c-3-7-12-11-25-11l-418 0c-13 0-22 4-26 11-3 6-1 16 6 27 0 1 73 110 227 111 1 0 1 0 2 0 1 0 1 0 2 0 153-1 226-110 227-111 7-11 9-21 5-27z"/>
<glyph unicode="&#78;" d="M63 319c-35 0-63-28-63-63 0-35 28-63 63-63 34 0 63 28 63 63 0 35-29 63-63 63z m0-97c-19 0-34 15-34 34 0 19 15 34 34 34 18 0 34-15 34-34 0-19-16-34-34-34z m193 97c-35 0-63-28-63-63 0-35 28-63 63-63 35 0 63 28 63 63 0 35-28 63-63 63z m0-97c-19 0-34 15-34 34 0 19 15 34 34 34 19 0 34-15 34-34 0-19-15-34-34-34z m193 97c-34 0-63-28-63-63 0-35 29-63 63-63 35 0 63 28 63 63 0 35-28 63-63 63z m0-97c-18 0-34 15-34 34 0 19 16 34 34 34 19 0 34-15 34-34 0-19-15-34-34-34z"/>
<glyph unicode="&#79;" d="M505 402l-143 0c-4 55-49 98-105 98-55 0-101-43-105-98l-143 0c-5 0-9-4-9-9l0-373c0-5 4-9 9-9l496 0c5 0 9 4 9 9l0 373c0 5-4 9-9 9z m-248 80c46 0 83-35 87-80l-174 0c4 45 42 80 87 80z m239-98l0-95c-51-46-113-75-181-86-6 26-30 46-58 46-28 0-52-20-58-46-68 11-130 40-181 86l0 95z m-239-153c23 0 42-19 42-42 0-23-19-42-42-42-23 0-42 19-42 42 0 23 19 42 42 42z m-239-201l0 235c52-42 113-70 179-81 2-31 28-55 60-55 32 0 58 24 60 55 66 11 127 39 179 81l0-235z"/>
<glyph unicode="&#81;" d="M143 433l-20 20c-2 1-4 2-7 2-3 0-5-1-7-2l-106-107c-2-1-3-4-3-7 0-2 1-5 3-7l19-19c4-4 11-4 14 0 4 4 103 102 107 106 3 4 3 10 0 14z m369-104c-4 4-102 102-106 106-4 4-10 4-14 0l-19-19c-2-2-3-5-3-7 0-3 1-5 3-7l106-106c2-2 4-3 7-3 2 0 5 1 7 3l19 19c4 4 4 10 0 14z m-324-185c-10 10-17 26-17 38 0 6-4 17-11 24l-11 11c-4 4-10 4-14 0l-19-19c-4-4-4-10 0-14l124-124c4-4 10-4 14 0l2 2c1 1 1 1 1 2 0 0 0 0 0 0 1 2 1 4 2 5 0 0 0 0 0 0 0 3-1 5-3 7z m231 166c-1 2-8 8-33 33-37 37-72 55-103 53-20-2-32-13-32-13-5-5-13-13-20-20l-58-58c-1-1-2-4-2-5 0-1 1-3 2-5l0 0 20-20c3-3 8-3 11 0l63 64c3 3 6 4 10 4 3 0 7-1 9-4l122-122 12 12c22 22 22 58 0 81-1 0-1 0-1 0z m-142 1l-55-55c-13-13-34-13-47 0l-20 20c0 0 0 0 0 0-7 7-10 15-10 24 0 9 3 18 10 24l57 58c7 7 15 14 20 20 2 1 14 13 35 18-17 10-63 23-132-46-37-37-47-47-47-47-26-26-26-70 0-97l16-16 17 17c12 12 31 12 42 0l12-11c9-10 17-26 16-38 0-6 5-17 11-24l68-68c4-4 7-9 8-14 6 0 15 1 27 5l-77 76c-4 4-4 10 0 14 4 4 10 4 14 0l83-83c8 4 16 8 25 14l-89 88c-4 4-4 10 0 14 4 4 10 4 14 0l91-91c7 6 13 11 20 18l-92 92c-4 4-4 10 0 14 4 4 11 4 14 0l91-90c13 23 1 40-1 43z"/>
<glyph unicode="&#82;" d="M382 385c0-70-57-127-127-127-70 0-126 57-126 127 0 70 56 127 126 127 70 0 127-57 127-127z m-7-198l-239 0c-67 0-122-53-124-120l0-53c0-7 6-13 13-13l62 0 0 63c0 6 5 12 12 12 7 0 12-6 12-12l0-63 108 0 21 72-12 22 27 27 27-27-12-22 22-72 107 0 0 63c0 6 6 12 13 12 6 0 12-6 12-12l0-63 62 0c7 0 12 6 12 13l0 56c-3 65-57 117-123 117z"/>
<glyph unicode="&#83;" d="M256 246c73 0 132 60 132 133 0 73-59 133-132 133-74 0-133-60-133-133 0-73 59-133 133-133z m0 242c60 0 109-49 109-109 0-60-49-109-109-109-61 0-110 49-110 109 0 60 49 109 110 109z m113-286l-227 0c-72 0-130-58-130-130l0-59c0-7 5-12 12-12l463 0c7 0 12 5 12 12l0 59c0 72-58 130-130 130z m-132-177l15 53c2 5 0 10-4 13-4 2-6 7-6 11 0 8 6 14 14 14 7 0 14-6 14-14 0-4-3-9-7-11-4-3-6-8-4-13l16-53z m239 0l-60 0 0 47c0 7-5 12-11 12-7 0-12-5-12-12l0-47-94 0-16 52c7 7 10 16 10 25 0 21-17 38-37 38-21 0-38-17-38-38 0-9 3-18 10-25l-16-52-94 0 0 47c0 7-5 12-12 12-6 0-11-5-11-12l0-47-60 0 0 47c0 59 48 107 107 107l227 0c59 0 107-48 107-107z"/>
<glyph unicode="&#84;" d="M512 339l-106 106c-4 4-10 4-14 0l-37-37c-21 13-40 20-60 21-1 3-3 7-6 9-1 1-51 49-132-9l-34 34c-4 3-10 3-14 0l-106-106c-2-2-3-5-3-8 0-2 1-5 3-7l46-45c0-3-1-6-1-8 0-24 10-46 26-63l20-19c-2-10 0-20 8-27l124-124c5-6 13-9 21-9 8 0 15 3 21 9l2 2c2 2 3 3 4 5 0 0 1 0 1 0 17 0 71 5 129 63 2 2 3 4 5 6 0 0 1 0 1 0 0 0 0 1 1 2 24 29 19 57 10 74l15 15c14 14 22 32 23 50 1 0 2 1 3 1l50 51c4 4 4 10 0 14z m-488 10l92 92 25-24c-6-6-13-12-20-18l-47-47c-9-10-16-21-20-32z m64-12l47 48c75 74 123 52 136 42-23-4-36-17-36-17-6-6-14-14-21-21l-57-57c-12-12-12-31 0-43l20-20c12-12 31-12 43 0l57 57 123-124c3-3 17-22 1-47l-93 92c-3 4-10 4-14 0-4-4-4-10 0-14l95-94c-7-7-14-13-20-18l-94 93c-4 4-10 4-14 0-4-4-4-10 0-14l91-91c-8-5-17-10-24-13l-86 85c-4 4-10 4-14 0-4-4-4-10 0-14l79-79c-12-4-22-5-28-5-1 6-4 13-9 18l-68 68c-6 6-11 17-11 23 1 12-7 28-16 38l-12 11c-5 6-13 9-21 9-8 0-15-3-21-9l-17-16-16 15c-26 27-26 71 0 97z m168-265l-2-2c-4-4-11-4-14 0l-124 124c-4 4-4 10 0 14l19 19c2 2 4 3 7 3 3 0 5-1 7-3l12-11c6-6 10-18 10-24 0-11 7-28 17-38l68-68c4-3 4-10 0-14z m166 165l-14-14-124 124c-2 2-5 3-7 3-3 0-5-1-7-3l-64-64c-4-4-11-4-15 0l-20 20c-4 4-4 11 0 15l57 57c7 7 15 15 21 20 0 1 12 12 34 14 32 2 68-16 105-53 27-27 33-33 34-34 0 0 0 0 0 0 23-23 23-62 0-85z m35 61c-3 14-10 27-21 38l0 0c0 0 0 0 0 0l0 0c0 0-1 1-1 1-1 1-3 3-4 4l-29 29c-10 10-20 19-30 27l27 27 92-92z"/>
<glyph unicode="&#85;" d="M448 288l-126 0c-32 0-58-23-64-52l13 0c68 0 123-56 123-124l0-48 65 0 0 158c0 5 4 9 9 9 5 0 9-4 9-9l0-158 27 0c6 0 10 4 10 9l0 78c0 0 0 0 0 0l0 71c0 36-30 66-66 66z m-172 52c0-52-42-94-94-94-53 0-95 42-95 94 0 53 42 95 95 95 52 0 94-42 94-95z m-5-135l-178 0c-51 0-93-42-93-93l0-39c0-5 4-9 9-9l47 0 0 48c0 5 4 10 9 10 5 0 9-5 9-10l0-48 215 0 0 48c0 5 4 10 9 10 5 0 10-5 10-10l0-48 46 0c5 0 9 4 9 9l0 40c0 51-42 92-92 92z m181 175c0-37-30-67-67-67-37 0-67 30-67 67 0 37 30 67 67 67 37 0 67-30 67-67z"/>
<glyph unicode="&#86;" d="M509 311c-2 5-7 9-12 9l-176 0-55 167c-1 5-6 9-11 9-6 0-10-4-12-9l-55-167-176 0c-5 0-10-4-11-9-2-5 0-11 4-14l142-96-66-166c-2-5 0-11 4-14 4-3 10-3 15 0l155 109 154-109c3-2 5-2 7-2 3 0 6 0 8 2 4 3 6 9 4 14l-66 166 142 96c4 3 6 9 5 14z m-169-95c-4-4-6-10-4-15l54-137-128 91c-5 3-10 3-14 0l-129-91 54 137c2 5 1 11-4 15l-117 79 145 0c6 0 10 4 12 9l46 140 45-140c2-5 6-9 12-9l145 0z"/>
<glyph unicode="&#88;" d="M184 243c56 0 101 45 101 100 0 56-45 101-101 101-55 0-100-45-100-101 0-55 45-100 100-100z m0 183c46 0 83-37 83-83 0-45-37-82-83-82-45 0-82 37-82 82 0 46 37 83 82 83z m196-118c41 0 74 33 74 74 0 40-33 73-74 73-40 0-73-33-73-73 0-41 33-74 73-74z m0 130c31 0 56-25 56-56 0-31-25-56-56-56-30 0-55 25-55 56 0 31 25 56 55 56z m61-148l-121 0c-40 0-73-33-73-73l0-7-149 0c-54 0-98-44-98-99l0-45c0-2 1-4 3-6 1-2 4-4 7-4l492 0c1 0 1 0 2 0 0 0 0 0 1 0 5 0 9 4 9 9l0 152c0 40-33 73-73 73z m-176-73c0 30 25 55 55 55l121 0c30 0 55-25 55-55l0-143-27 0 0 143c0 5-4 9-9 9-5 0-9-4-9-9l0-143-83 0 0 37c0 41-24 75-58 90 0 0 0 0 0 0l0 16c0 5-4 9-9 9-5 0-9-4-9-9l0-10c-7 2-14 3-22 3l-5 0z m-167-25l172 0c44 0 81-36 81-81l0-37-45 0 0 37c0 5-4 9-9 9-5 0-9-4-9-9l0-37-208 0 0 37c0 5-4 9-9 9-4 0-8-4-8-9l0-37-45 0 0 37c0 45 36 81 80 81z"/>
<glyph unicode="&#89;" d="M512 342l-48 47c-4 4-10 4-14 0l-9-9-94 71-10 8c-5 4-11 6-15 9-10 5-20 8-32 10-9 2-18 2-30 1-9-1-17-3-25-7-7-2-13-5-20-10-5-4-9-7-12-10-4-3-5-5-6-6-1-1-1-1-1-1l-2-3c-7-7-7-19-2-27 4-5 9-8 15-9 6-1 12 0 17 3l2 2c0 0 1 0 2 1 0 0 2 1 2 1 0 0 1 1 1 1 2 1 4 2 7 3 3 1 7 1 11 2 3 0 7 0 11-1 4 0 8-2 12-3 4-3 7-5 9-7l2-2c1-1 2-2 3-3l20-27-297-271c-6-5-9-13-9-20 0-8 3-15 8-21l24-24c5-5 13-8 20-8 0 0 0 0 1 0 7 0 15 3 20 9l266 292 23-32-9-9c-4-4-4-10 0-14l48-47c1-2 4-3 6-3 3 0 5 1 7 3l98 97c3 4 3 10 0 14z m-453-288c-2-1-4-2-7-3-2 0-4 1-6 3l-24 24c-2 2-3 4-3 6 0 3 2 5 3 7l296 269 9-11z m248 353l-5 7c-2 2-4 4-5 6l-1 1c-4 4-9 7-15 11-6 3-12 4-17 5-6 1-12 2-17 1-6 0-11-2-15-3-4-1-7-2-9-4-3-1-5-2-7-3l-3-3c-1 0-2 0-2 0-1 0-2 0-2 1-1 1-1 3 0 4l1 2c1 0 1 1 2 1 1 2 2 3 4 5 2 2 6 5 10 8 6 4 11 6 16 8 6 3 13 5 20 6 10 0 18 0 25-1 10-2 18-4 26-8 4-2 8-5 12-8l102-77-51-51z m100-156l-33 34 83 84 34-34z"/>
<glyph unicode="&#90;" d="M474 344l-33 0 0 99c0 10-8 18-19 18l-20 0c-11 0-19 9-19 19l0 13c0 10-9 19-19 19l-216 0c-10 0-19-9-19-19l0-13c0-10-9-19-19-19l-20 0c-11 0-19-8-19-18l0-99-33 0c-5 0-10-4-10-10l0-115c0-5 5-10 10-10l33 0 0-124c0-11 8-19 19-19l26 0 0-63 62 0 0 63 154 0 0-63 62 0 0 63 28 0c11 0 19 8 19 19l0 124 33 0c5 0 9 5 9 10l0 115c0 6-4 10-9 10z m-427-116l0 97 24 0 0-97z m113 247c0 4 3 7 7 7l177 0c3 0 6-3 6-7l0-28c0-4-3-7-6-7l-177 0c-4 0-7 3-7 7z m-13-363c-17 0-31 14-31 31 0 17 14 31 31 31 17 0 31-14 31-31 0-17-14-31-31-31z m216 0c-18 0-31 14-31 31 0 17 13 31 31 31 17 0 31-14 31-31 0-17-14-31-31-31z m31 106c0-5-4-9-9-9l-260 0c-5 0-9 4-9 9l0 180c0 5 4 9 9 9l260 0c5 0 9-4 9-9z m71 10l-24 0 0 97 24 0z"/>
<glyph unicode="&#48;" d="M475 342l-33 0c-1 0-1 0-2 0-1 24-4 49-9 71 0 1 0 2 0 3-1 2-1 5-2 7 0 1-1 2-1 4-1 2-1 4-2 6 0 1 0 2-1 3 0 3-1 5-2 7 0 1 0 2-1 3 0 2-1 5-2 7-1 1-1 1-1 2-1 3-2 5-4 8 0 1 0 1-1 2 0 2-1 4-3 6 0 1-1 2-1 3-1 1-2 3-3 4 0 1-1 2-2 3-1 1-2 3-3 4 0 1-1 2-2 3-1 1-2 2-3 4-1 0-1 1-2 1-2 2-3 4-5 6-1 0-1 0-2 0-1 2-3 3-5 4 0 0-1 1-2 1-1 1-3 2-4 2-1 1-2 1-3 2-1 0-3 1-4 1-1 0-2 1-3 1-2 0-4 1-5 1-1 0-2 0-3 0-2 1-5 1-8 1-45 0-147 0-191 0-3 0-5 0-8-1-1 0-1 0-2 0-2 0-4-1-5-1-1 0-2-1-3-1-2 0-3-1-5-1-1-1-1-1-2-2-2 0-3-1-5-2 0 0-1-1-2-1-1-1-3-2-5-4 0 0 0 0-1 0-2-2-4-4-5-6-1 0-1-1-2-1-1-2-2-3-4-4 0-1-1-2-1-3-2-1-3-3-4-4 0-1-1-2-1-3-1-1-2-3-3-4-1-1-1-2-2-3-1-2-2-4-3-6 0-1 0-1-1-2-1-3-2-5-3-8 0-1-1-1-1-2-1-2-2-5-3-7 0-1 0-2-1-3 0-2-1-4-2-7 0-1 0-2-1-3 0-2-1-4-1-6-1-1-1-3-1-4-1-2-1-5-2-7 0-1 0-2 0-3-1-3-2-7-3-10 0 0 0 0 0 0l0 0c-3-20-5-41-7-61 0 0-1 0-2 0l-33 0c-5 0-9-4-9-9l0-116c0-5 4-9 9-9 5 0 9 4 9 9l0 107 24 0c1 0 1 0 1 0-1-15-1-30-1-44 0-20 0-57 0-94 0-53 0-105 0-105 0-10 8-18 18-18l28 0 0-64 63 0 0 64 154 0 0-64 62 0 0 64 30 0c10 0 18 8 18 18 0 0 0 52 0 105 0 37 0 74 0 94 0 14 0 29-1 44 1 0 1 0 1 0l24 0 0-107c0-5 4-9 9-9 5 0 9 4 9 9l0 116c0 5-4 9-9 9z m-252 61c0-1 0-1 0-2l0-30-131 0c1 11 3 22 5 32z m-125-271c0 11 9 20 20 20 11 0 20-9 20-20 0-11-9-20-20-20-11 0-20 9-20 20z m61-17c0 8 7 15 15 15 8 0 15-7 15-15 0-8-7-15-15-15-8 0-15 7-15 15z m163 0c0 8 7 15 15 15 9 0 15-7 15-15 0-8-6-15-15-15-8 0-15 7-15 15z m51 17c0 11 9 20 20 20 11 0 20-9 20-20 0-11-9-20-20-20-11 0-20 9-20 20z m-286 54l0 94c0 22 1 47 3 73l142 0c5 0 9 4 9 9l0 39c0 1 0 1 0 2l174 0c7-38 9-82 9-123l0-94-337 0z"/>
<glyph unicode="&#49;" d="M424 463l-171 0c-22 0-39-18-39-39l0-24c0-21 17-39 39-39l171 0c21 0 39 18 39 39l0 24c0 21-18 39-39 39z m21-63c0-11-9-21-21-21l-171 0c-12 0-21 10-21 21l0 24c0 11 9 21 21 21l171 0c12 0 21-10 21-21z m-101-121c-3 3-9 3-12 0l-76-76-75 76c-3 3-9 3-13 0-3-4-3-10 0-13l76-75-76-76c-3-3-3-9 0-12 2-2 4-3 7-3 2 0 4 1 6 3l75 75 76-75c2-2 4-3 6-3 2 0 5 1 6 3 4 3 4 9 0 12l-75 76 75 75c4 3 4 9 0 13z m94 232l-247 0c-2 0-4-1-6-2l-47-43-35 43c-1 2-4 3-6 3-2 0-5-1-7-2l-67-61c-4-4-4-9-1-13l35-43-48-44c-2-1-3-4-3-6l0-332c0-5 4-9 9-9l483 0c5 0 9 4 9 9l0 432c0 37-31 68-69 68z m-397-70l54 49 30-36-55-49z m448-421l-465 0 0 319 50 45c0 0 1 0 1 1 1 0 2 1 2 2l64 58c1 0 1 0 2 1 1 0 1 1 2 2l50 45 243 0c28 0 51-23 51-50z"/>
<glyph unicode="&#50;" d="M151 186c-21 0-39-17-39-39 0-21 18-39 39-39 22 0 39 18 39 39 0 22-17 39-39 39z m0-60c-11 0-21 10-21 21 0 12 10 21 21 21 12 0 21-9 21-21 0-11-9-21-21-21z m208 60c-22 0-39-17-39-39 0-21 17-39 39-39 21 0 39 18 39 39 0 22-18 39-39 39z m0-60c-12 0-21 10-21 21 0 12 9 21 21 21 11 0 21-9 21-21 0-11-10-21-21-21z m30 281l-268 0c-5 0-9-4-9-9l0-184c0-5 4-9 9-9l268 0c5 0 9 4 9 9l0 184c0 5-4 9-9 9z m-9-184l-250 0 0 166 250 0z m-219 203l188 0c5 0 9 4 9 9l0 37c0 5-4 10-9 10l-188 0c-5 0-9-5-9-10l0-37c0-5 4-9 9-9z m10 37l169 0 0-19-169 0z m295-122l-22 0 0 95c0 15-13 27-28 27l-19 0c-5 0-10 4-10 9l0 13c0 15-12 27-27 27l-208 0c-15 0-28-12-28-27l0-13c0-5-4-9-9-9l-19 0c-15 0-28-12-28-27l0-95-22 0c-5 0-9-4-9-9l0-112c0-5 4-9 9-9l22 0 0-120c0-15 13-27 28-27l16 0 0-34c0-15 12-27 28-27l23 0c15 0 27 12 27 27l0 34 130 0 0-34c0-15 12-27 27-27l24 0c15 0 27 12 27 27l0 34 18 0c15 0 28 12 28 27l0 120 22 0c5 0 9 4 9 9l0 112c0 5-4 9-9 9z m-411-112l0 93 13 0 0-93z m117-199c0-5-4-9-9-9l-23 0c-6 0-10 4-10 9l0 34 42 0z m208 0c0-5-4-9-9-9l-24 0c-5 0-9 4-9 9l0 34 42 0z m45 61c0-5-4-9-9-9l-26 0c-1 0-1 0-1 0 0 0-1 0-1 0l-58 0c-1 0-1 0-1 0 0 0-1 0-1 0l-146 0c0 0-1 0-1 0 0 0 0 0-1 0l-58 0c0 0-1 0-1 0 0 0 0 0 0 0l-25 0c-5 0-9 4-9 9l0 345c0 5 4 9 9 9l19 0c15 0 28 12 28 27l0 13c0 5 4 9 9 9l208 0c5 0 9-4 9-9l0-13c0-15 13-27 28-27l19 0c5 0 9-4 9-9z m32 138l-13 0 0 93 13 0z"/>
<glyph unicode="&#51;" d="M504 237l-207 77 3 118c0 36-21 68-45 68-24 0-45-32-45-69l3-117-207-77c-4-1-6-5-6-8l0-58c0-2 1-5 3-7 3-1 5-2 8-1l204 49 6-104-53-31c-3-2-4-5-4-8l0-45c0-3 1-6 3-8 3-1 6-2 9-1l79 33 79-33c1 0 2 0 3 0 2 0 4 0 5 1 3 2 4 5 4 8l0 45c0 3-1 6-4 8l-53 31 6 104 204-49c3-1 5 0 8 1 2 2 3 5 3 7l0 58c0 3-2 7-6 8z m-216-5c-2 0-5 0-7-2-2-1-4-4-4-7l-6-120c0-3 1-6 4-8l54-31 0-27-71 29c-1 1-2 1-3 1-1 0-2 0-3-1l-71-29 0 27 54 31c2 2 4 5 4 8l-6 120c-1 3-2 6-4 7-2 2-5 2-7 2l-204-49 0 5 179 48c5 2 8 7 6 11-1 5-6 8-11 7l-174-47 0 16 207 77c4 1 6 5 6 8l-3 124c0 13 3 26 10 37 5 8 12 13 17 13 11 0 27-21 27-50l-3-124c0-3 2-7 6-8l207-77 0-16-174 47c-5 1-10-2-11-7-2-4 1-9 6-11l179-48 0-5z"/>
<glyph unicode="&#52;" d="M499 271l-225 0 0 225c0 9-7 16-16 16-9 0-17-7-17-16l0-225-225 0c-9 0-16-8-16-17 0-9 7-16 16-16l225 0 0-225c0-9 8-17 17-17 9 0 16 8 16 17l0 225 225 0c9 0 17 7 17 16 0 9-8 17-17 17z"/>
<glyph unicode="&#53;" d="M468 309l-200 101c-2 1-4 1-6 0l-258-119c-2-1-4-3-4-6 0-3 2-6 4-7 0 0 9-5 24-12l-24-11c-2-1-4-4-4-7 0-2 2-5 4-6l24-12-24-11c-2-1-4-4-4-7 0-3 2-5 4-7l200-100c0 0 0 0 1 0 6-4 12-5 18-5 5 0 10 1 14 3 26 12 222 101 240 110 21 10 33 25 33 42 0 33-25 45-42 54z m-423-52c55-27 147-74 159-80 15-7 25-20 29-34l-208 105z m185-140c-1 0-1-1-1-1-1 0-1 0-1 0-5-2-11-1-18 3 0 0 0 0-1 0l-184 93 20 9 190-96c-1-3-2-6-5-8z m240 110c-15-8-163-75-220-101 0 1 0 2 0 2 0 1 0 1 0 1 0 20-10 47-39 62-15 7-143 72-186 93l240 111 196-99c19-10 33-19 33-41 0-10-9-21-24-28z m-163 59c1-3 4-5 6-5 2 0 3 1 4 1l60 28c4 2 6 7 4 10-2 4-6 6-10 4l-61-28c-4-2-5-6-3-10z m100 19c-2 4-6 6-10 4l-59-27c-4-2-6-7-4-10 2-3 4-5 7-5 1 0 2 1 3 1l59 27c4 2 6 7 4 10z m16-11l-57-26c-4-2-6-7-4-10 1-3 4-5 7-5 1 0 2 0 3 1l57 26c4 2 6 7 4 10-2 4-7 6-10 4z m-161 75l-180-83 59-31 180 83z m73-119l-59 31c-3 1-5 2-7 1l-88-41c-3-1-5-4-5-7 0-3 2-5 4-7l59-31c1-1 3-1 4-1 1 0 2 0 3 1l88 40c3 2 4 4 5 7 0 3-2 6-4 7z m-92-39l-42 22 71 33 42-22z"/>
<glyph unicode="&#54;" d="M387 509c-5 0-9-2-13-5-3-2-61-49-61-143l0-135c0-6 2-12 5-17 4-6 10-10 15-10 1 0 3-3 3-9l0-160c0-15 12-28 27-28l12 0c15 0 28 13 28 28l0 460c0 13-8 19-16 19z m-3-479c0-5-4-10-9-10l-12 0c-5 0-9 5-9 10l0 160c0 7-1 13-5 18-3 6-9 9-14 9-1 0-1 0-1 0-1 1-3 4-3 9l0 135c0 81 48 124 53 128z m-197 372c5 0 9 4 9 9l0 92c0 5-4 9-9 9-5 0-9-4-9-9l0-92c0-5 4-9 9-9z m-35 0c5 0 9 4 9 9l0 92c0 5-4 9-9 9-5 0-9-4-9-9l0-92c0-5 4-9 9-9z m70 110c-5 0-9-4-9-9l0-114c0-24-20-43-43-43-24 0-44 19-44 43l0 114c0 5-4 9-9 9-5 0-9-4-9-9l0-114c0-26 17-49 40-57l-12-307c-1-7 2-14 7-20 5-5 12-8 19-8l15 0c8 0 14 3 19 8 5 6 8 13 8 20l-13 307c23 8 40 31 40 57l0 114c0 5-4 9-9 9z m-36-488c0-2-1-4-3-6-1-2-3-3-6-3l-15 0c-2 0-4 1-6 3-2 2-2 4-2 6l12 304c1 0 3 0 4 0 1 0 2 0 3 0z"/>
<glyph unicode="&#55;" d="M468 339l-25 0c-1 19-3 39-7 59 0 0 0 0 0 0 0 1 0 2 0 3-11 58-35 111-88 111l-185 0c-44 0-73-38-87-112 0 0 0-1 0-1-3-18-6-38-7-60l-25 0c-5 0-9-4-9-8l0-113c0-5 4-8 9-8 4 0 8 3 8 8l0 104 16 0c-1-14-1-28-1-42l0-193c0-15 12-26 26-26l18 0 0-36c0-14 12-26 26-26l26 0c14 0 26 12 26 26l0 36 131 0 0-36c0-14 12-26 27-26l25 0c15 0 26 12 26 26l0 36 20 0c15 0 26 11 26 26l0 193c0 10 0 25 0 42l15 0 0-104c0-5 4-8 9-8 5 0 8 3 8 8l0 113c0 4-4 8-8 8z m-376 50l132 0 0-22-135 0c1 8 2 15 3 22z m-8-109c0 23 1 46 3 70l146 0c4 0 8 4 8 8l0 31 179 0c5-30 7-66 7-109l0-82-343 0z m79 215l185 0c33 0 56-30 69-88l-322 0c11 50 31 88 68 88z m9-470c0-4-4-8-9-8l-26 0c-5 0-8 4-8 8l0 36 43 0 0-36z m209 0c0-4-4-8-9-8l-25 0c-5 0-9 4-9 8l0 36 43 0z m37 53l-28 0c0 0 0 0 0 0-1 0-1 0-1 0l-59 0c0 0-1 0-1 0 0 0 0 0-1 0l-147 0c0 0 0 0-1 0 0 0 0 0 0 0l-59 0c-1 0-1 0-1 0 0 0-1 0-1 0l-26 0c-5 0-9 4-9 9l0 93 343 0 0-93c0-5-4-9-9-9z m-295 86c-16 0-29-12-29-28 0-15 13-28 29-28 15 0 28 13 28 28 0 16-13 28-28 28z m0-38c-6 0-11 4-11 10 0 6 5 11 11 11 5 0 10-5 10-11 0-6-5-10-10-10z m68-6c0-8-6-15-14-15-8 0-15 7-15 15 0 8 7 14 15 14 8 0 14-6 14-14z m198 44c-16 0-28-12-28-28 0-15 12-28 28-28 15 0 28 13 28 28 0 16-13 28-28 28z m0-38c-6 0-11 4-11 10 0 6 5 11 11 11 6 0 10-5 10-11 0-6-4-10-10-10z m-40-6c0-8-6-15-14-15-8 0-15 7-15 15 0 8 7 14 15 14 8 0 14-6 14-14z"/>
<glyph unicode="&#56;" d="M124 419l-25 0c-55 0-99-45-99-99l0-285c0-5 4-9 8-9l206 0c5 0 9 4 9 9l0 285c0 54-45 99-99 99z m82-376l-189 0 0 277c0 45 37 82 82 82l25 0c45 0 82-37 82-82z m-125 382l60 0c5 0 9 4 9 9l0 41c0 5-4 9-9 9l-60 0c-5 0-8-4-8-9l0-41c0-5 3-9 8-9z m9 42l43 0 0-25-43 0z m53-85c-2 0-5-1-7-2-2-2-3-4-3-7l0-136c0-4 4-8 8-8l37 0c5 0 8 4 8 8l0 92c0 25-18 48-43 53z m26-136l-19 0 0 115c12-6 19-18 19-32z m294 38l-26 0c-28 0-50-23-50-51l0-198c0-5 3-9 8-9l110 0c5 0 9 4 9 9l0 198c0 28-23 51-51 51z m-26-17l26 0c19 0 34-16 34-34l0-12c-14-10-30-15-47-15-17 0-33 5-47 15l0 12c0 18 16 34 34 34z m-34-224l0 158c15-8 31-12 47-12 17 0 33 4 47 12l0-158z m19 118l56 0 0-74-56 0z m-70 282l-46 0c-4 0-8-4-8-9l0-41-20 0c-4 0-8-4-8-8l0-27c-16-13-26-34-26-56l0-267c0-5 4-9 9-9l107 0c5 0 8 4 8 9l0 267c0 22-9 43-25 56l0 27c0 4-4 8-9 8l-19 0 0 33 37 0c3 0 5-1 7-2 2-2 2-6 2-7 0-5 4-9 9-9 4 0 8 3 8 8 0 1 0 12-7 19-3 4-9 8-19 8z m-91-400l0 248 90 0 0-248z m90 265l-89 0c1 15 9 30 20 38l48 0c12-8 20-23 21-38z m-25 55l-39 0 0 13 39 0z"/>
<glyph unicode="&#57;" d="M502 107l-493 0c-5 0-9-4-9-9 0-5 4-9 9-9l493 0c5 0 9 4 9 9 0 5-4 9-9 9z m-64 269l-43 0 0 37c0 5-4 9-9 9l-332 0c-5 0-9-4-9-9l0-136c0-79 73-144 162-144l26 0c89 0 162 65 162 144l0 81 43 0c31 0 56-25 56-56l0-3c0-31-25-56-56-56-5 0-9-5-9-9 0-5 4-10 9-10 41 0 74 34 74 75l0 3c0 41-33 74-74 74z m-61-99c0-69-65-126-144-126l-26 0c-79 0-144 57-144 126l0 127 314 0 0-127z m-51 66c-5 0-9-4-9-9l0-48c0-43-40-78-90-78l-16 0c-5 0-9-4-9-9 0-5 4-9 9-9l16 0c60 0 108 43 108 96l0 48c0 5-4 9-9 9z"/>
<glyph unicode="&#33;" d="M506 6c-3 5-12 13-20 19l-91 62c-8 6-7 10 3 10l20 0c10 0 18 9 18 19 0 0 0 144 0 193 0 89-14 165-89 192-41 15-145 15-185 0-74-27-89-103-89-192 0-49 0-193 0-193 0-10 8-19 19-19l19 0c10 0 11-4 3-10l-91-62c-8-6-17-14-20-19 0 0 0 0 3-4 3-4 3-4 3-4 5 1 16 6 25 12l112 77c8 6 23 10 34 10l150 0c10 0 25-4 33-10l112-77c9-6 17-11 19-12 0 0 0 0 2 0 3 0 5 1 7 4 3 4 3 4 3 4z m-136 143c-9 0-16 7-16 16 0 8 7 15 16 15 8 0 15-7 15-15 0-9-7-16-15-16z m-248 223c3 35 37 66 72 67 48 1 73 1 122 0 35-1 68-32 71-67 4-35 5-53 6-87 0-35-30-66-65-67-59-2-88-2-147 0-35 1-65 32-65 67 1 34 2 52 6 87z m2-207c0 8 7 15 15 15 9 0 16-7 16-15 0-9-7-16-16-16-8 0-15 7-15 16z"/>
<glyph unicode="&#34;" d="M447 199c0 0-3 0-9 0-13 0-42 0-100 0l-229 190c-2 1-4 2-6 2l-57 0c-4 0-7-2-8-5-2-3-1-7 1-9l152-177c-16 1-40 2-58 4-14 1-25 15-36 28-11 12-21 24-34 28-10 3-22 5-36 5-11 0-19-1-20-1-2 0-4-2-6-4-1-2-1-5 0-7 0-2 41-109 156-120 67-6 287-13 290-13 1 0 3 0 4 0l0 0c16 0 31 4 42 10 13 7 20 17 20 28 0 23-29 41-66 41z m38-54c-9-5-21-8-34-8l0 0c-1 0-3 0-4 1-2 0-222 6-288 12-85 8-125 72-138 98 2 0 4 0 6 0 12 0 22-2 31-4 8-3 17-13 25-23 13-15 28-32 48-34 31-4 78-4 80-4 3 0 6 2 8 5 1 3 1 6-2 9l-153 177 36 0 230-190c1-1 3-2 5-2 60-1 90-1 103-1 6 0 9 0 9 0 28 0 49-12 49-23 0-4-4-9-11-13z m-38 31l-100 0 0 0c-5 0-9-4-9-9 0-4 4-8 9-8l100-1c0 0 0 0 0 0 5 0 8 4 8 9 1 5-3 9-8 9z"/>
<glyph unicode="&#35;" d="M451 271c-2 0-3 0-5 0-2 0-234-8-298-8-7 0-12 0-14 0-14 1-26 14-37 27-11 12-21 23-34 26-9 3-19 4-30 4-15 0-26-2-26-2-3-1-5-2-6-4-1-3-1-5 0-8 0 0 21-49 70-82-11 1-19 1-26 1-8 1-12 2-12 2l-1 0c-5 0-10-3-10-8-1-5 2-10 7-10 0 0 6-1 15-2 8-1 20-2 35-3 11-1 24-1 37-2 14-4 29-7 45-8 25-1 72-2 141-2 74 0 146 1 147 1 23 0 44 7 56 19 6 6 9 14 8 21-1 22-28 38-62 38z"/>
<glyph unicode="&#36;" d="M497 19l-122 84 35 0c14 0 26 12 26 27l0 182c0 77-10 160-89 189-19 7-53 11-90 11-38 0-72-4-91-11-42-15-90-50-90-189l0-182c0-15 12-27 27-27l35 0-122-84c-4-3-5-8-3-13 3-4 9-5 13-2l144 99 173 0 144-99c1-1 3-1 5-1 3 0 5 1 7 3 3 5 2 10-2 13z m-330 102l-64 0c-5 0-9 4-9 9l0 182c0 101 23 152 78 172 17 6 49 10 85 10 35 0 67-4 84-10 68-25 78-97 78-172l0-182c0-5-4-9-9-9z m-4 54c0-8-7-15-15-15-8 0-15 7-15 15 0 9 7 15 15 15 8 0 15-6 15-15z m217 0c0-8-7-15-15-15-8 0-15 7-15 15 0 9 7 15 15 15 8 0 15-6 15-15z m16 114c-1 32-2 48-5 83-4 37-39 70-77 71-49 1-66 1-115 0-38-1-73-34-77-71-3-34-4-51-5-83-1-38 31-71 70-72 29-2 49-2 69-2l0 0c20 0 40 0 70 2 39 1 70 34 70 72z m-70-55c-30-1-50-1-70-1l0 0c-19 0-39 0-69 1-28 2-53 27-52 54 1 32 2 48 5 82 3 28 30 54 59 55 25 1 41 1 57 1 17 0 33 0 58-1 28-1 56-27 59-55 3-34 4-50 5-82 0-27-24-52-52-54z"/>
<glyph unicode="&#37;" d="M257 512c-142 0-257-115-257-257 0-141 115-256 257-256 141 0 256 115 256 256 0 142-115 257-256 257z m143-183l-166-166c-3-3-7-4-10-4-4 0-7 1-10 4l-100 100c-6 6-6 14 0 20 5 5 14 5 19 0l91-91 156 156c6 5 14 5 20 0 5-5 5-14 0-19z"/>
<glyph unicode="&#38;" d="M432 207l-178-178-178 178c-5 5-13 5-18 0-5-5-5-13 0-18l187-187c2-2 6-3 9-3 3 0 7 1 9 3l187 187c5 5 5 13 0 18-5 5-13 5-18 0z m-365 93c3 0 7 1 9 4l178 178 178-178c5-5 13-5 18 0 5 5 5 13 0 18l-187 186c-5 5-13 5-18 0l-187-186c-5-5-5-13 0-18 3-3 6-4 9-4z"/>
<glyph unicode="&#64;" d="M502 385c-6 6-16 6-22 0l-227-226-226 226c-6 6-16 6-22 0-7-7-7-17 0-23l237-237c3-3 7-5 11-5 5 0 9 2 12 5l237 237c6 6 6 16 0 23z"/>
<glyph unicode="&#40;" d="M257 512c-142 0-257-115-257-257 0-141 115-256 257-256 141 0 256 115 256 256 0 142-115 257-256 257z m0-487c-128 0-231 103-231 230 0 128 103 231 231 231 127 0 230-103 230-231 0-127-103-230-230-230z m117 318l-148-148-87 86c-5 5-13 5-18 0-5-5-5-13 0-18l95-96c3-2 6-3 10-3 3 0 6 1 9 3l157 158c5 5 5 13 0 18-5 6-13 6-18 0z"/>
<glyph unicode="&#41;" d="M57 187c-5 1-10-2-11-7-1-9-2-13-2-13-1-6 3-10 8-11 1 0 1 0 1 0 5 0 9 3 10 8 0 0 0 5 2 12 1 5-3 10-8 11z m201 93c-5 9-9 16-14 23-3 4-9 5-13 2-5-3-5-9-2-14 4-5 8-12 12-20 2-3 5-5 8-5 2 0 3 1 5 2 4 2 6 8 4 12z m40-90c-2 4-8 6-12 4-5-3-7-9-4-13 5-9 9-17 15-23 1-2 4-3 7-3 2 0 4 1 6 2 4 4 4 10 1 14-4 5-8 11-13 19z m-15 33l-3 9c-2 5-4 9-6 14-2 5-8 7-13 5-4-2-7-8-5-13 2-4 4-9 6-13l4-9c1-4 5-6 9-6 1 0 2 0 3 0 5 2 7 8 5 13z m-124 108c-2 5-7 8-12 7-9-3-17-7-25-12-4-3-5-9-2-13 1-3 4-5 7-5 2 0 4 1 6 2 6 4 13 7 20 9 5 2 7 7 6 12z m-53-31c-4 3-10 2-13-2-5-6-10-14-14-22-3-4-1-10 3-13 2-1 4-1 5-1 3 0 7 2 8 5 4 7 9 14 13 20 3 4 3 10-2 13z m304-104c-4 3-10 1-13-3-3-7-8-13-13-18-3-4-3-10 0-14 2-1 5-2 7-2 3 0 5 1 7 3 6 6 11 13 16 21 3 5 1 11-4 13z m-335 51c-5 1-10-1-12-6-3-8-6-16-8-24-2-5 1-11 6-12 1 0 2 0 3 0 4 0 8 2 9 6 2 8 5 16 8 23 1 5-1 11-6 13z m347-2c-5 1-9-3-10-8 0 0-1-5-2-11-1-5 2-11 7-12 1 0 1 0 2 0 4 0 8 3 9 7 2 8 3 14 3 14 0 5-3 10-9 10z m33 163c0-19-15-33-34-33-18 0-33 14-33 33 0 18 15 33 33 33 19 0 34-15 34-33z m53 49c-2 1-6 2-9 1l-8-4c-13 25-40 42-70 42-43 0-78-35-78-78 0-7 0-14 1-20l-6-2-161 62c0 0 0 0 0 0-1 0-2 0-3 0-1 0-2 0-3 0 0 0 0 0 0 0l-165-63c-4-2-6-5-6-9l0-363c0-3 2-6 4-8 2-1 4-1 5-1 2 0 3 0 4 0l161 62 161-62c0 0 0 0 0 0 1 0 2 0 3 0 2 0 3 0 4 0 0 0 0 0 0 0l164 63c4 2 6 5 6 9l0 363c0 3-1 6-4 8z m-87 20c26 0 47-16 56-38 0 0 0 0 0 0 0 0 0 0 0 0 3-7 4-14 4-21 0-67-44-109-60-121-13 11-48 43-57 95 0 1 0 2 0 3-2 7-2 15-2 23 0 32 26 59 59 59z m-238-155c1 0 1 0 2 0 7-2 13-4 20-8 1-1 3-1 5-1 3 0 6 2 8 5 2 4 1 10-4 13-8 4-17 8-26 9-2 1-3 0-5 0l0 95 146-56 0-225c-2-2-3-4-3-6-1-4 1-7 3-9l0-102-146 56 0 229z m-164 57l145 56 0-342-145-56z m329-342l0 101c5 0 9 1 14 2 5 2 8 7 7 12-2 5-7 8-12 6-3 0-6-1-9-1l0 219c16-64 66-97 68-99 2-1 4-2 5-2 2 0 4 1 6 2 2 2 49 33 66 94l0-278z"/>
<glyph unicode="&#44;" d="M505 30l-140 140c70 81 66 204-11 281-39 39-91 61-147 61-55 0-107-22-146-61-81-81-81-212 0-293 39-39 91-61 146-61 50 0 98 18 135 50l140-140c4-3 8-5 12-5 4 0 8 2 11 5 6 6 6 16 0 23z m-422 150c-68 69-68 180 0 249 33 33 78 51 124 51 47 0 91-18 125-51 68-69 68-180 0-249-34-33-78-51-125-51-46 0-91 18-124 51z"/>
<glyph unicode="&#45;" d="M502 12l-189 281 0 209c0 6-4 10-10 10l-93 0c-6 0-10-4-10-10l0-209-189-281c-2-3-2-6 0-10 2-3 5-5 8-5l475 0c3 0 7 2 8 5 2 4 2 7 0 10z m-464 5l180 268c1 2 1 4 1 5l0 203 75 0 0-203c0-1 0-3 1-5l180-268z m185 216c-3 0-6-2-8-4l-113-167c-2-3-2-7 0-10 1-3 5-5 8-5l293 0c3 0 7 2 9 5 1 3 1 7-1 10l-113 167c-2 2-5 4-8 4z m50-59c-9 0-16 7-16 16 0 9 7 17 16 17 9 0 16-8 16-17 0-9-7-16-16-16z m32-4c9 0 16-7 16-16 0-9-7-16-16-16-9 0-16 7-16 16 0 9 7 16 16 16z"/>
<glyph unicode="&#46;" d="M496 334l-178 165c-10 9-19 13-29 13-10 0-19-5-28-15l-250-269c0 0 0 0 0-1-1 0-1 0-1 0l0 0c0 0 0 0 0 0 0 0 0 0 0 0l-1-1c-11-13-10-24-7-32 4-8 11-16 20-25l167-154c11-11 23-16 34-16 11 0 20 4 28 13 3 3 3 9 0 13-4 3-10 3-13-1-14-14-30-2-37 4l-166 155c-7 6-13 12-16 18 0 2-1 3-1 5l195-180c2-2 4-3 6-3 3 0 5 1 7 3 3 4 3 10-1 13l-194 181c5 0 12-3 24-15l167-154c21-20 46-22 62-4l214 230c9 10 13 19 13 29-1 10-6 19-15 28z m-12-45l-213-229c-5-5-11-8-17-7-6 1-13 5-20 11l-166 154c-9 9-17 15-25 18l231 249c6 5 11 9 16 9 4 0 9-3 15-8l178-166c6-5 9-10 9-15 1-4-2-10-8-16z m-233 15c-3 4-9 4-13 0-3-4-3-10 1-13l58-54c2-1 4-2 6-2 3 0 5 1 7 3 3 3 3 9-1 13z m106 60c0 0 0 0 0 0-3 0-5-1-7-2l-23-25c-3-4-3-10 1-13 3-4 9-3 13 0l15 17c4-11 3-24-6-33-11-12-30-13-43-2-12 12-13 31-1 43 5 6 13 10 21 10 5 0 9 4 9 9 0 5-4 9-9 9-14 0-26-6-35-15-18-20-17-51 3-69 9-9 21-13 33-13 13 0 26 5 36 16 17 18 17 47 0 66-2 1-5 2-7 2z m-108-115l0 0c-2 0-5-1-6-3l-23-25c-4-4-4-9 0-13 4-3 10-3 13 1l15 16c5-11 3-24-5-33-6-6-13-9-21-9-9-1-16 2-22 8-6 5-10 13-10 21 0 8 3 16 8 22 6 6 13 9 22 9 5 0 9 5 9 10-1 5-5 9-10 9-13-1-25-6-34-16-18-19-17-50 2-69 9-8 21-13 33-13 1 0 2 0 2 0 13 1 25 6 34 16 17 18 17 47 0 66-2 2-4 3-7 3z"/>
<glyph unicode="&#47;" d="M482 512l-454 0c-15 0-28-13-28-28l0-454c0-15 13-28 28-28l245 0 0 197-66 0 0 77 66 0 0 57c0 66 40 102 99 102 28 0 52-2 60-3l0-69-41 0c-33 0-39-16-39-38l0-49 76 0-10-77-66 0 0-198 130 0c15 0 28 13 28 28l0 455c1 15-12 28-28 28z"/>
<glyph unicode="&#58;" d="M508 413c-19-8-39-14-60-17 22 13 38 34 46 58-20-12-42-21-66-25-19 20-46 33-76 33-58 0-104-47-104-104 0-9 0-16 2-24-86 4-164 46-215 109-9-15-14-33-14-52 0-36 18-68 46-86-17 1-33 5-47 13 0-1 0-1 0-2 0-50 36-92 84-102-8-2-18-3-28-3-6 0-13 1-19 1 14-41 52-71 97-72-36-28-80-44-129-44-8 0-17 1-25 1 46-29 101-47 159-47 192 0 297 159 297 297 0 4 0 9 0 13 21 14 38 32 52 53z"/>
<glyph unicode="&#59;" d="M401 177c-25 0-47-10-64-27l-133 72c4 11 6 22 6 34 0 12-2 24-6 34l133 73c16-17 39-27 64-27 49 0 89 39 89 88 0 49-39 89-89 89-49 0-88-39-88-89 0-6 1-13 2-19l-139-75c-17 14-38 23-61 23-54-1-96-44-96-97 0-53 42-96 96-96 23 0 45 8 62 23l139-74c-2-7-3-13-3-20 0-48 39-88 88-88 50 0 89 39 89 88 0 50-40 88-89 88z m-286 30c-27 0-50 22-50 49 0 27 23 49 50 49 27 0 49-22 49-49 0-27-22-49-49-49z"/>
<glyph unicode="&#60;" d="M227 212c-3 1-6 1-10 1-5 0-29-1-48-6-10-4-39-15-39-47 0-31 31-54 80-54 43 0 66 20 66 48 0 22-15 35-49 58z m24 117c0 32-20 81-57 81-12 0-25-4-32-13-8-10-10-22-10-34 0-30 18-80 56-80 11 0 24 7 31 14 11 10 12 24 12 32z m233 183l-457 0c-15 0-27-12-27-27l0-458c0-14 12-27 27-27l458 0c14 0 27 12 27 27l0 458c-1 15-14 27-28 27z m-298-426c-66 0-96 31-96 64 0 16 8 39 35 55 28 17 66 19 86 20-6 8-14 16-14 31 0 8 3 12 4 17-5-1-10-1-14-1-48 0-75 35-75 70 0 21 7 45 25 62 26 21 59 24 84 24l95 0-29-18-27 0c11-9 31-25 31-59 0-34-19-49-38-63-6-6-13-12-13-23 0-10 7-15 12-18l16-13c20-16 38-32 38-62 0-43-42-86-120-86z m243 167l-45 0 0-45-23 0 0 45-45 0 0 23 45 0 0 45 23 0 0-45 45 0z"/>
<glyph unicode="&#61;" d="M261 512c-137 0-248-111-248-248 0-47 13-91 36-128l-45-133 137 44c36-20 76-30 120-30 137 0 248 110 248 247 0 137-111 248-248 248z m0-454c-42 0-81 12-113 34l-79-26 25 77c-25 34-39 76-39 121 0 114 92 207 206 207 114 0 206-93 206-207 0-114-92-206-206-206z m116 150c-6 3-36 20-42 22-6 3-10 4-14-2-4-6-17-20-20-24-5-4-8-4-14-1-7 3-27 11-50 33-18 18-30 39-34 46-3 6 0 10 3 12 4 2 7 7 10 11 4 3 4 6 7 10 2 4 2 8 0 10-2 3-13 35-17 48-5 13-10 11-14 11-5 0-9 1-13 1-4 0-11-1-17-8-6-5-23-20-24-52-1-31 21-62 23-66 3-4 41-72 105-100 63-28 63-19 75-19 12 1 38 14 44 28 6 15 6 28 5 30-2 3-6 6-13 10z"/>
<glyph unicode="&#87;" d="M493 140c-4 2-9 2-12-2l-2-2c-4-5-6-8-13-8-6 0-9 3-13 8l-2 4c-1 1-1 2-3 2 2 2 2 4 1 7-8 26-23 49-42 67 0 0 0 1 0 1l0 182c0 4-4 8-9 8l-71 0 0 26c0 44-38 79-86 79-11 0-22-2-31-5-9 3-20 5-31 5-47 0-86-35-86-78l0-26-70 0c-5 0-9-4-9-9l0-392c0-4 4-8 9-8l381 0c2 0 3 0 4 1 25 14 34 39 36 52l3 0c21 0 37 15 37 34 0 10-6 20-15 26 13 1 19 9 23 14l2 2c3 3 3 8-1 12z m-339-15l2 4c5 5 7 9 13 9 7 0 9-3 13-9l3-4c2-2 4-5 7-7l-46 0c3 3 5 5 8 7z m283 4l3-4c2-2 4-5 7-7l-46 0c2 2 5 5 6 7l3 4c5 5 7 9 13 9 7 0 10-4 14-9z m-8 25c-2 0-3 1-5 1-14 0-21-9-26-15l-3-4c-5-5-7-8-13-8-6 0-9 3-13 8l-3 4c-4 6-12 15-26 15-15 0-22-9-27-15l-2-4c-5-5-7-8-13-8-7 0-9 3-13 8l-3 4c-5 6-12 15-27 15-14 0-21-9-26-15l-3-4c-4-5-7-8-13-8-6 0-9 3-13 8l-3 4c-4 6-11 15-26 15-2 0-3 0-4-1 21 54 73 89 132 89 57 0 108-35 130-89z m-67-36l-46 0c3 2 5 5 7 7l3 4c4 5 7 9 13 9 6 0 9-3 13-9l2-4c3-2 6-4 8-7z m-85 0l-46 0c3 2 5 5 7 7l3 4c4 5 7 9 13 9 6 0 9-3 13-9l3-4c2-2 5-4 7-7z m112 112c-13 10-28 18-44 23l0 137 44 0z m-148 265c38 0 70-27 70-61l0-26-45 0 0 26c0 25-13 46-33 61 3 0 6 0 8 0z m-31-6c23-10 39-31 39-55l0-26-77 0 0 26c0 24 15 45 38 55z m-100-55c0 34 31 61 69 61 3 0 6 0 8 0-20-15-32-36-32-61l0-26-45 0z m-79-44l62 0 0-27c0-4 4-8 8-8 5 0 9 4 9 8l0 27 139 0 0-27c0-4 4-8 8-8 5 0 9 4 9 8l0 27 61 0 0-133c-10 2-20 3-31 3-70 0-131-45-152-111-1-3-1-5 1-7-1-1-2-1-3-2l-2-4c-5-5-7-8-13-8-7 0-9 3-13 8l-2 2c-3 4-8 4-12 2-3-3-4-9-1-12l2-2c4-5 10-13 23-14-9-7-14-16-14-27 0-18 16-33 36-33l3 0c2-9 7-24 18-37l-136 0z m371-374l-210 0c-16 10-23 26-25 36l261 0c-3-10-11-27-26-36z m45 53l-301 0c-10 0-19 8-19 17 0 9 9 16 19 16l301 0c11 0 20-7 20-16 0-9-9-17-20-17z"/>
<glyph unicode="&#77;" d="M411 5c-57 0-124 17-161 34-44 21-85 47-117 77 0 0-1 1-1 1-4 3-8 6-11 10-3 4-6 8-10 11-29 33-56 73-77 117-26 60-57 197-9 245 8 7 20 12 33 12 53 0 134-75 159-133 15-36 6-56-6-66-15-15-32-27-52-34 7-12 21-33 51-64 31-30 52-44 64-51 8 19 19 37 34 52 9 9 20 13 33 13 53 0 135-74 160-132 15-36 5-56-6-67-17-17-46-25-84-25z m-272 138c3-3 7-6 10-9 31-29 69-53 111-73 36-15 99-32 151-32 32 0 55 6 66 18 9 10 6 28 0 40-22 54-96 118-137 118-6 0-12-2-16-6-15-15-26-34-32-55-2-7-9-10-15-8-3 1-32 9-85 61-52 52-60 82-61 85-2 6 2 13 8 15 21 5 40 17 55 32 10 9 6 28 0 40-22 55-96 118-136 118-7 0-12-2-16-5-33-34-14-153 14-217 20-42 45-80 72-111 4-3 8-7 11-11-1 0 0 0 0 0z"/>
<glyph unicode="&#80;" d="M322 203c-18-18-31-40-37-63 0 0-29 8-84 62-54 54-62 84-62 84 23 6 45 19 63 37 54 53-126 232-180 179-42-42-16-179 12-244 21-44 48-86 79-120 4-4 7-8 11-13 5-4 9-7 13-11 34-31 76-58 120-79 65-28 202-55 244-12 54 53-126 233-179 180z"/>
<glyph unicode="&#62;" d="M387 10c7 6 7 16 0 22l-226 226 226 226c7 7 7 16 0 23-6 6-16 6-22 0l-238-237c-2-3-4-8-4-12 0-4 2-8 4-12l238-237c6-6 16-6 22 1z"/>
<glyph unicode="&#39;" d="M127 508c-5-7-5-17 0-24l226-226-226-226c-6-6-6-16 0-22 6-7 16-7 22 0l238 237c3 4 4 8 4 12 0 4-2 9-4 12l-237 237c-6 5-17 5-23 0z"/>
<glyph unicode="&#63;" d="M4 125c7-7 16-7 23 0l227 226 226-226c6-7 16-7 22 0 7 6 7 16 0 22l-237 238c-4 2-7 4-11 4-4 0-9-2-12-4l-238-238c-5-6-5-16 0-22z"/>
<glyph unicode="&#91;" d="M456 512l-398 0c-33 0-61-26-61-59l0-398c0-33 27-59 59-59l398 0c33 0 59 26 59 59l0 398c2 33-25 59-57 59z m-200-159c55 0 100-44 100-100 0-55-45-99-100-99-55 0-100 44-100 99 0 56 45 100 100 100z m200-278c0-11-10-20-20-20l-359 0c-10 0-19 9-19 20l0 219 44 0c-2-13-5-26-5-39 0-88 71-159 159-159 88 0 159 71 159 159 0 13-1 27-5 39l44 0 0-219z m0 298c0-11-10-20-20-20l-59 0c-11 0-20 9-20 20l0 60c0 11 9 20 20 20l59 0c10 0 20-9 20-20z"/>
<glyph unicode="&#93;" d="M402 311c0-5-2-9-5-13l-128-128c-4-4-8-5-13-5-5 0-9 1-13 5l-128 128c-3 4-5 8-5 13 0 5 2 9 5 13 4 3 8 5 13 5l256 0c5 0 9-2 13-5 3-4 5-8 5-13z"/>
<glyph unicode="&#94;" d="M255 190l-88 88c-3 3-3 6 0 8 2 2 5 2 8 0l80-80 81 80c2 2 5 2 8 0 2-2 2-5 0-8z m0-188c-141 0-255 114-255 255 0 141 114 255 255 255 141 0 255-114 255-255 0-141-114-255-255-255z m0 499c-134 0-244-110-244-244 0-134 110-244 244-244 134 0 244 110 244 244 0 134-110 244-244 244z"/>
<glyph unicode="&#95;" d="M115 395l63 0 0-58-63 0z m0-225l63 0 0-58-63 0z m283 342c-31-54-51-95-61-120-14-39-21-85-21-136 0-52 8-99 24-142 10-26 30-64 59-114l-36 0c-29 41-47 67-54 78-7 11-15 26-23 46-11 26-19 54-23 84-2 16-3 31-3 45 0 53 9 100 28 141 11 26 36 66 73 118z"/>
<glyph unicode="&#123;" d="M499 323c-68-39-242-105-298-125-97-34-170 38-171 39-7 7 13 20 37 22 9 1 19-3 30-8 11-5 46-9 58-5 14 5 51 21 66 28l-209 67c-3 2-5 4-5 8 0 3 2 6 5 7l33 16c11 5 18 3 32 0l251-48c97 44 118 44 148 42 45-2 42-32 23-43z m-470-192l258 0 0-36-258 0z"/>
<glyph unicode="&#42;" d="M474 134c-86 11-285 71-349 92-109 35-125 148-125 150-1 11 25 9 48-5 9-5 14-16 20-27 7-13 36-40 49-44 16-6 60-16 78-20l-140 201c-2 4-1 7 0 10 2 3 6 5 10 4l40-8c13-3 18-11 29-22l190-214c116-26 135-41 160-63 39-33 15-57-10-54z m-253-76l289 0 0-40-289 0z"/>
<glyph unicode="&#43;" d="M29 58c20 30 36 52 154 114l142 286c8 15 11 25 25 32l40 21c4 2 8 1 12-1 3-3 4-7 3-11l-92-259c17 10 62 34 78 45 12 8 36 46 39 61 3 14 6 27 14 36 22 22 49 31 51 19 0-1 16-128-91-198-62-41-260-164-350-201-25-11-58 8-25 56z"/>
<glyph unicode="&#96;" d="M504 344c-60-55-221-161-273-193-90-57-180-1-181 0-9 5 8 22 32 31 9 3 20 1 31-2 13-3 50 2 61 9 14 8 47 33 60 43l-227 20c-3 1-6 3-7 7-1 3 1 6 3 8l30 24c10 8 19 7 33 8l265 7c87 67 109 71 139 77 47 8 50-24 34-39z"/>
</font>
</defs>
</svg>
